<?xml version="1.0" encoding="UTF-8" standalone="no"?>
<!DOCTYPE svg  PUBLIC '-//W3C//DTD SVG 1.1//EN'  'http://www.w3.org/Graphics/SVG/1.1/DTD/svg11.dtd'>
<svg xmlns="http://www.w3.org/2000/svg">
<defs>
<font id="DINPro-Bold" horiz-adv-x="543">
<font-face underline-position="-85" font-weight="700" descent="-200" panose-1="2 0 5 3 3 0 0 2 0 4" units-per-em="1000" unicode-range="U+0020-25CA" bbox="-115 -206 1158 1015" x-height="521" underline-thickness="51" font-family="DINPro" ascent="800" cap-height="712"/>
<missing-glyph horiz-adv-x="1000"/>
<glyph glyph-name=".notdef" horiz-adv-x="1000"/>
<glyph glyph-name=".null" horiz-adv-x="0"/>
<glyph glyph-name=".null" horiz-adv-x="0"/>
<glyph glyph-name="nonmarkingreturn" horiz-adv-x="333"/>
<glyph glyph-name="space" horiz-adv-x="232" unicode=" "/>
<glyph glyph-name="exclam" horiz-adv-x="347" unicode="!" d="M267 0h-149v148h149v-148zM273 712l-33 -489h-96l-32 489h161z"/>
<glyph glyph-name="quotedbl" horiz-adv-x="464" unicode='&quot;' d="M395 501h-121v211h121v-211zM190 501h-122v211h122v-211z"/>
<glyph glyph-name="numbersign" horiz-adv-x="691" unicode="#" d="M417 420h-115l-17 -108h116zM643 420h-89l-16 -108h69v-122h-89l-30 -190h-137l31 190h-116l-30 -190h-137l30 190h-69v122h89l16 108h-70v121h89l28 177h137l-28 -177h116l28 177h136l-27 -177h69v-121z"/>
<glyph glyph-name="dollar" horiz-adv-x="619" unicode="$" d="M268 428v167q-42 -6 -64.5 -30t-22.5 -58q0 -31 21 -51q23 -22 66 -28zM435 206q0 39 -22 60q-19 18 -71 26v-172q93 11 93 86zM571 210q0 -89 -59 -144.5t-156 -67.5v-112h-101v108q-148 5 -236 94l90 90q57 -57 159 -60v181l-32 4q-90 12 -138 60q-51 51 -51 139 q0 87 55.5 145.5t152.5 68.5v90h101v-89q120 -7 197 -82l-88 -87q-44 42 -123 48v-174l38 -6q91 -14 136 -56q55 -52 55 -150z"/>
<glyph glyph-name="percent" horiz-adv-x="848" unicode="%" d="M248 486v91q0 57 -51 57t-51 -57v-91q0 -57 51 -57t51 57zM702 135v91q0 57 -51 57t-51 -57v-91q0 -57 51 -57t51 57zM644 712l-337 -712h-102l337 712h102zM342 482q0 -65 -41.5 -101t-103.5 -36t-103.5 36t-41.5 101v99q0 65 41.5 101t103.5 36t103.5 -36t41.5 -101 v-99zM796 131q0 -65 -41.5 -101t-103.5 -36t-103.5 36t-41.5 101v99q0 65 41.5 101t103.5 36t103.5 -36t41.5 -101v-99z"/>
<glyph glyph-name="ampersand" horiz-adv-x="721" unicode="&amp;" d="M366 549q0 25 -16 41.5t-43 16.5q-28 0 -43.5 -16t-15.5 -42q0 -12 7.5 -27t15 -24.5t24.5 -28.5l30 20q41 29 41 60zM400 154l-142 167q-37 -26 -54.5 -50t-17.5 -59q0 -44 31 -72t77 -28q58 0 106 42zM696 0h-165l-52 62q-26 -21 -41 -31t-55.5 -23.5t-87.5 -13.5 q-116 0 -175.5 57t-59.5 159q0 106 128 191q-71 81 -71 151q0 74 51 120t139 46q83 0 132.5 -47t49.5 -121q0 -71 -73 -124q-33 -25 -51 -37l120 -142q33 44 36 125h123q-8 -145 -76 -221z"/>
<glyph glyph-name="quotesingle" horiz-adv-x="259" unicode="&apos;" d="M191 501h-123v211h123v-211z"/>
<glyph glyph-name="parenleft" horiz-adv-x="336" unicode="(" d="M281 -7l-87 -87q-66 66 -88 103q-26 45 -26 129v436q0 84 26 129q22 37 88 103l87 -87q-40 -40 -56 -67q-15 -27 -15 -84v-424q0 -57 15 -84q16 -27 56 -67z"/>
<glyph glyph-name="parenright" horiz-adv-x="336" unicode=")" d="M256 138q0 -84 -26 -129q-22 -37 -88 -103l-88 88q42 42 56 66q15 27 15 84v424q0 57 -15 84q-14 24 -56 66l88 88q66 -66 88 -103q26 -45 26 -129v-436z"/>
<glyph glyph-name="asterisk" horiz-adv-x="494" unicode="*" d="M440 460l-46 -79l-105 66l4 -125h-92l5 125l-106 -66l-45 79l110 58l-110 58l45 80l106 -67l-5 125h92l-4 -125l105 67l46 -80l-111 -58z"/>
<glyph glyph-name="plus" d="M493 216h-160v-160h-122v160h-161v122h161v160h122v-160h160v-122z" unicode="+"/>
<glyph glyph-name="comma" horiz-adv-x="279" unicode="," d="M211 -55l-143 -110v307h143v-197z"/>
<glyph glyph-name="hyphen" horiz-adv-x="426" unicode="-" d="M367 225h-308v121h308v-121z"/>
<glyph glyph-name="period" horiz-adv-x="285" unicode="." d="M217 0h-149v148h149v-148z"/>
<glyph glyph-name="slash" horiz-adv-x="403" unicode="/" d="M407 786l-285 -860h-122l285 860h122z"/>
<glyph glyph-name="zero" d="M358 207v297q0 45 -23.5 71t-62.5 26t-63 -26.5t-24 -70.5v-297q0 -44 24 -70t63 -26t62.5 26t23.5 70zM488 206q0 -98 -62.5 -155t-153.5 -57t-154 57t-63 155v300q0 98 63 155t154 57t153.5 -57t62.5 -155v-300z" unicode="0"/>
<glyph glyph-name="one" d="M378 0h-130v572l-145 -126v140l145 126h130v-712z" unicode="1"/>
<glyph glyph-name="two" d="M492 0h-433v117l266 309q37 44 37 86q0 40 -22.5 64.5t-63.5 24.5q-37 0 -62 -21.5t-25 -69.5h-130q0 95 61.5 151.5t155.5 56.5q96 0 156 -56t60 -151q0 -48 -17 -81t-59 -82l-199 -231h275v-117z" unicode="2"/>
<glyph glyph-name="three" d="M495 206q0 -102 -64.5 -157t-161.5 -55q-95 0 -160.5 52.5t-66.5 157.5h130q1 -46 28.5 -69.5t68.5 -23.5q43 0 69.5 26t26.5 73q0 45 -26.5 71.5t-73.5 26.5h-19v113h19q45 0 67.5 24.5t22.5 64.5q0 43 -25 67t-62 24t-61.5 -23t-26.5 -63h-130q2 93 64 148t154 55 q95 0 156 -57t61 -147q0 -102 -82 -146q92 -49 92 -162z" unicode="3"/>
<glyph glyph-name="four" d="M512 101h-65v-101h-125v101h-291v123l244 488h142l-244 -488h149v133h125v-133h65v-123z" unicode="4"/>
<glyph glyph-name="five" d="M494 240q0 -65 -13 -108t-50 -80q-58 -58 -157 -58q-102 0 -159 57q-51 51 -58 148h130q11 -88 87 -88q39 0 62 23q28 28 28 106q0 128 -87 128q-67 0 -86 -58h-119v402h406v-117h-288v-153q38 36 107 36q85 0 133 -48q64 -64 64 -190z" unicode="5"/>
<glyph glyph-name="six" d="M362 215q0 47 -25.5 75.5t-66.5 28.5t-66.5 -28t-25.5 -76t25.5 -76t66.5 -28t66.5 28t25.5 76zM492 216q0 -103 -62.5 -162.5t-159.5 -59.5t-159.5 58.5t-62.5 161.5q0 68 60 190l150 308h142l-148 -294q22 9 53 9q76 0 131.5 -58t55.5 -153z" unicode="6"/>
<glyph glyph-name="seven" d="M503 595l-231 -595h-141l231 595h-188v-112h-124v229h453v-117z" unicode="7"/>
<glyph glyph-name="eight" d="M360 511q0 38 -25 64t-63 26t-63.5 -26t-25.5 -64q0 -39 25.5 -64.5t63.5 -25.5t63 25.5t25 64.5zM370 209q0 41 -28.5 70t-69.5 29t-69.5 -29t-28.5 -70t28.5 -69.5t69.5 -28.5t69.5 28.5t28.5 69.5zM500 207q0 -100 -64.5 -156.5t-163.5 -56.5t-163.5 56.5t-64.5 156.5 q0 101 89 160q-80 56 -80 148t63.5 147.5t155.5 55.5t155 -55.5t63 -147.5t-80 -148q90 -60 90 -160z" unicode="8"/>
<glyph glyph-name="nine" d="M365 497q0 48 -25.5 76t-66.5 28t-66.5 -28t-25.5 -76q0 -47 25.5 -75.5t66.5 -28.5t66.5 28t25.5 76zM495 498q0 -70 -59 -190l-151 -308h-141l148 294q-22 -9 -53 -9q-76 0 -132 58t-56 153q0 103 62.5 162.5t159.5 59.5t159.5 -58.5t62.5 -161.5z" unicode="9"/>
<glyph glyph-name="colon" horiz-adv-x="309" unicode=":" d="M241 0h-148v148h148v-148zM241 271h-148v148h148v-148z"/>
<glyph glyph-name="semicolon" horiz-adv-x="309" unicode=";" d="M241 271h-148v148h148v-148zM238 -55l-142 -110v307h142v-197z"/>
<glyph glyph-name="less" d="M475 42l-406 187v113l406 187v-137l-241 -107l241 -106v-137z" unicode="&lt;"/>
<glyph glyph-name="equal" d="M493 116h-443v122h443v-122zM493 333h-443v122h443v-122z" unicode="="/>
<glyph glyph-name="greater" d="M475 229l-406 -187v137l241 106l-241 107v137l406 -187v-113z" unicode="&gt;"/>
<glyph glyph-name="question" horiz-adv-x="523" unicode="?" d="M350 0h-138v133h138v-133zM487 518q0 -60 -49 -125l-74 -98q-18 -23 -18 -51v-21h-130v30q0 54 38 104l74 95q29 38 29 67q0 36 -22 59t-59 23q-38 0 -59 -23.5t-21 -59.5h-130q0 91 60 145.5t150 54.5q89 0 150 -54t61 -146z"/>
<glyph glyph-name="at" horiz-adv-x="758" unicode="@" d="M576 231q0 63 -18.5 95.5t-64.5 32.5t-64 -32t-18 -96t18 -96.5t64 -32.5t64.5 33t18.5 96zM700 -3l-121 3v46q-48 -52 -120 -52q-79 0 -126 50q-29 31 -38 72t-9 115q0 73 9 113.5t37 71.5q46 51 126 51q73 0 118 -49v45q0 67 -35 102t-100 35h-124q-65 0 -100 -35 t-35 -102v-289q0 -37 9.5 -57t34.5 -42l-90 -90q-44 40 -61.5 78t-17.5 104v299q0 127 62 189q61 61 188 61h144q127 0 188 -61t61 -189v-469z"/>
<glyph glyph-name="A" horiz-adv-x="638" unicode="A" d="M409 243l-87 259l-90 -259h177zM633 0h-145l-42 126h-253l-43 -126h-145l259 712h109z"/>
<glyph glyph-name="B" horiz-adv-x="658" unicode="B" d="M450 506q0 37 -24 59.5t-68 22.5h-136v-164h136q44 0 68 22.5t24 59.5zM460 212q0 38 -24 62.5t-69 24.5h-145v-175h145q45 0 69 25t24 63zM599 205q0 -97 -60 -151t-158 -54h-298v712h286q103 0 161.5 -54t58.5 -146q0 -54 -27.5 -92.5t-60.5 -54.5q98 -46 98 -160z"/>
<glyph glyph-name="C" horiz-adv-x="620" unicode="C" d="M583 219q-18 -107 -88 -166t-174 -59q-114 0 -192 78q-46 46 -58 107q-12 60 -12 177t12 177q12 61 58 107q78 78 192 78q104 0 174 -59t88 -166h-141q-25 101 -120 101q-58 0 -89 -37q-22 -23 -28.5 -60.5t-6.5 -140.5t6.5 -140.5t28.5 -60.5q31 -37 89 -37 q95 0 120 101h141z"/>
<glyph glyph-name="D" horiz-adv-x="659" unicode="D" d="M461 359q0 85 -5.5 123.5t-24.5 61.5q-36 44 -104 44h-105v-464h105q68 0 104 44q19 23 24.5 63.5t5.5 127.5zM600 359v-53q0 -82 -13.5 -137.5t-58.5 -100.5q-68 -68 -188 -68h-257v712h257q120 0 188 -68q45 -45 58.5 -99t13.5 -133v-53z"/>
<glyph glyph-name="E" horiz-adv-x="605" unicode="E" d="M552 0h-469v712h469v-124h-330v-167h281v-124h-281v-173h330v-124z"/>
<glyph glyph-name="F" horiz-adv-x="590" unicode="F" d="M552 588h-330v-175h281v-124h-281v-289h-139v712h469v-124z"/>
<glyph glyph-name="G" horiz-adv-x="637" unicode="G" d="M590 292q0 -78 -15.5 -128t-52.5 -89q-80 -81 -201 -81q-114 0 -192 78q-46 46 -58 107q-12 60 -12 177t12 177q12 61 58 107q78 78 192 78q115 0 184 -64t84 -164h-140q-26 104 -128 104q-56 0 -89 -38q-21 -26 -27.5 -62.5t-6.5 -137.5q0 -103 6.5 -139.5t27.5 -61.5 q31 -37 89 -37q62 0 99 40q32 37 32 95v27h-131v116h269v-104z"/>
<glyph glyph-name="H" horiz-adv-x="685" unicode="H" d="M602 0h-139v298h-241v-298h-139v712h139v-291h241v291h139v-712z"/>
<glyph glyph-name="I" horiz-adv-x="305" unicode="I" d="M222 0h-139v712h139v-712z"/>
<glyph glyph-name="J" horiz-adv-x="511" unicode="J" d="M437 234q0 -113 -73 -176.5t-178 -63.5q-58 0 -101 17t-82 56l92 91q40 -40 91 -40q52 0 82 31t30 91v472h139v-478z"/>
<glyph glyph-name="K" horiz-adv-x="665" unicode="K" d="M659 0h-162l-183 324l-92 -110v-214h-139v712h139v-310l251 310h169l-236 -283z"/>
<glyph glyph-name="L" horiz-adv-x="575" unicode="L" d="M545 0h-462v712h139v-588h323v-124z"/>
<glyph glyph-name="M" horiz-adv-x="811" unicode="M" d="M728 0h-139v415l-136 -270h-94l-137 270v-415h-139v712h137l186 -385l185 385h137v-712z"/>
<glyph glyph-name="N" horiz-adv-x="711" unicode="N" d="M628 0h-124l-282 437v-437h-139v712h124l282 -436v436h139v-712z"/>
<glyph glyph-name="O" horiz-adv-x="644" unicode="O" d="M446 356q0 100 -7 138.5t-28 61.5q-33 38 -89 38q-57 0 -90 -38q-21 -23 -27.5 -61t-6.5 -139t6.5 -139t27.5 -61q33 -38 90 -38q56 0 89 38q21 23 28 61.5t7 138.5zM585 356v-10q0 -74 -2.5 -111.5t-19 -83.5t-49.5 -79q-78 -78 -192 -78q-115 0 -193 78q-46 46 -58 104 t-12 161v19v19q0 103 12 161t58 104q78 78 193 78q114 0 192 -78q33 -33 49.5 -79t19 -83.5t2.5 -111.5v-10z"/>
<glyph glyph-name="P" horiz-adv-x="628" unicode="P" d="M455 490q0 44 -28 71t-75 27h-130v-195h130q47 0 75 26.5t28 70.5zM594 490q0 -94 -64 -158t-171 -64h-137v-268h-139v712h276q107 0 171 -64t64 -158z"/>
<glyph glyph-name="Q" horiz-adv-x="643" unicode="Q" d="M446 356q0 100 -7 138.5t-28 61.5q-33 38 -89 38q-57 0 -90 -38q-21 -23 -27.5 -61t-6.5 -139t6.5 -139t27.5 -61q33 -38 90 -38q27 0 46 13l-62 61l74 73l53 -53q13 37 13 144zM602 43l-73 -73l-63 63q-60 -39 -144 -39q-115 0 -193 78q-46 46 -58 104t-12 161v19v19 q0 103 12 161t58 104q78 78 193 78q114 0 192 -78q33 -33 49.5 -79t19 -83.5t2.5 -111.5v-10v-14q0 -62 -2 -95t-12 -73t-30 -70z"/>
<glyph glyph-name="R" horiz-adv-x="654" unicode="R" d="M454 494q0 42 -28 68t-73 26h-131v-188h131q45 0 73 26t28 68zM622 0h-161l-139 284h-100v-284h-139v712h279q106 0 168.5 -63t62.5 -155q0 -71 -37 -119t-93 -68z"/>
<glyph glyph-name="S" horiz-adv-x="591" unicode="S" d="M543 210q0 -101 -74.5 -158.5t-189.5 -57.5q-85 0 -147 21.5t-113 72.5l90 90q60 -60 172 -60q126 0 126 88q0 39 -22 60q-20 18 -63 25l-86 12q-91 13 -138 59q-51 51 -51 140q0 97 67 156.5t181 59.5q144 0 230 -83l-88 -87q-51 49 -146 49q-53 0 -81.5 -25.5 t-28.5 -64.5q0 -31 21 -51q24 -22 66 -28l84 -12q90 -13 136 -55q55 -52 55 -151z"/>
<glyph glyph-name="T" horiz-adv-x="571" unicode="T" d="M541 588h-186v-588h-139v588h-186v124h511v-124z"/>
<glyph glyph-name="U" horiz-adv-x="668" unicode="U" d="M596 244q0 -111 -75 -180.5t-187 -69.5t-187 69.5t-75 180.5v468h139v-463q0 -61 33 -96t90 -35t90.5 35t33.5 96v463h138v-468z"/>
<glyph glyph-name="V" horiz-adv-x="581" unicode="V" d="M578 712l-236 -712h-104l-235 712h144l143 -464l143 464h145z"/>
<glyph glyph-name="W" horiz-adv-x="887" unicode="W" d="M881 712l-191 -712h-116l-131 432l-131 -432h-116l-190 712h145l110 -449l130 449h104l130 -449l111 449h145z"/>
<glyph glyph-name="X" horiz-adv-x="603" unicode="X" d="M598 0h-159l-138 248l-137 -248h-159l221 365l-207 347h158l124 -230l125 230h157l-207 -347z"/>
<glyph glyph-name="Y" horiz-adv-x="572" unicode="Y" d="M569 712l-214 -420v-292h-138v292l-214 420h151l133 -287l131 287h151z"/>
<glyph glyph-name="Z" horiz-adv-x="548" unicode="Z" d="M508 0h-468v112l304 476h-291v124h455v-110l-305 -478h305v-124z"/>
<glyph glyph-name="bracketleft" horiz-adv-x="378" unicode="[" d="M337 -74h-257v860h257v-117h-127v-626h127v-117z"/>
<glyph glyph-name="backslash" horiz-adv-x="403" unicode="\" d="M403 -74h-122l-281 847h122z"/>
<glyph glyph-name="bracketright" horiz-adv-x="378" unicode="]" d="M299 -74h-257v116h127v628h-127v116h257v-860z"/>
<glyph glyph-name="asciicircum" horiz-adv-x="602" unicode="^" d="M539 389h-136l-102 188l-102 -188h-136l178 330h120z"/>
<glyph glyph-name="underscore" horiz-adv-x="602" unicode="_" d="M602 -178h-602v87h602v-87z"/>
<glyph glyph-name="grave" horiz-adv-x="500" unicode="`" d="M305 604h-87l-114 170h137z"/>
<glyph glyph-name="a" horiz-adv-x="534" unicode="a" d="M337 192v28h-103q-35 0 -54 -15.5t-19 -43.5q0 -60 75 -60q56 0 82 25q19 18 19 66zM467 0h-127v45q-27 -27 -55.5 -38.5t-72.5 -11.5q-87 0 -133 46q-43 45 -43 117q0 66 45.5 108.5t132.5 42.5h123v26q0 43 -23 62.5t-74 19.5q-37 0 -58 -9.5t-42 -33.5l-83 81 q37 41 79 56.5t109 15.5q222 0 222 -184v-343z"/>
<glyph glyph-name="b" horiz-adv-x="560" unicode="b" d="M379 261q0 74 -17 111.5t-71 37.5t-71 -37.5t-17 -111.5q0 -36 3 -60t11.5 -46t27 -33t46.5 -11t46.5 11t27 33t11.5 46t3 60zM509 261q0 -52 -2 -82.5t-14.5 -72t-36.5 -65.5q-47 -47 -127 -47q-81 0 -130 55v-49h-126v712h130v-237q47 52 126 52q80 0 127 -47 q24 -24 36.5 -65t14.5 -71.5t2 -82.5z"/>
<glyph glyph-name="c" horiz-adv-x="480" unicode="c" d="M452 65q-68 -71 -172 -71q-33 0 -64 7.5t-62.5 26t-54.5 48t-37.5 77t-14.5 108.5t14.5 108.5t37.5 76.5t54.5 48t62.5 26t64 7q105 0 172 -70l-88 -88q-38 41 -84 41t-74 -34q-29 -36 -29 -115q0 -80 29 -116q28 -34 74 -34t84 41z"/>
<glyph glyph-name="d" horiz-adv-x="561" unicode="d" d="M358 261q0 74 -17.5 111.5t-71.5 37.5t-71 -37.5t-17 -111.5q0 -36 3 -60t11.5 -46t27 -33t46.5 -11q54 0 71.5 38t17.5 112zM488 0h-127v49q-49 -55 -129 -55q-81 0 -128 47q-24 24 -36.5 65.5t-14.5 72t-2 82.5t2 82.5t14.5 71.5t36.5 65q47 47 127 47t127 -52v237h130 v-712z"/>
<glyph glyph-name="e" horiz-adv-x="548" unicode="e" d="M373 309q-1 31 -12 56q-24 54 -87 54t-87 -54q-11 -25 -12 -56h198zM501 220h-326q0 -52 30.5 -84t83.5 -32q41 0 66.5 11.5t51.5 37.5l79 -77q-43 -43 -87 -62.5t-111 -19.5q-50 0 -90.5 12.5t-75.5 41.5t-55 83t-20 130q0 125 62 195.5t165 70.5q106 0 166.5 -69.5 t60.5 -179.5v-58z"/>
<glyph glyph-name="f" horiz-adv-x="342" unicode="f" d="M315 407h-96v-407h-130v407h-54v99h54v65q0 61 39 105t113 44h74v-110h-51q-45 0 -45 -47v-57h96v-99z"/>
<glyph glyph-name="g" horiz-adv-x="555" unicode="g" d="M352 275q0 63 -17 99t-69 36q-28 0 -45.5 -10.5t-26 -31.5t-11 -42t-2.5 -51t2.5 -51t10.5 -42t26 -32t46 -11t46 11t26 32t11 42t3 51zM482 19q0 -95 -62.5 -155.5t-166.5 -60.5q-62 0 -106 15t-83 53l81 82q41 -40 102 -40q54 0 79.5 31.5t25.5 76.5v53 q-47 -52 -124 -52q-78 0 -124 46q-34 34 -43.5 80.5t-9.5 126.5t9.5 126t43.5 80q46 46 125 46q77 0 127 -55v49h126v-502z"/>
<glyph glyph-name="h" horiz-adv-x="569" unicode="h" d="M502 0h-130v318q0 48 -25 70t-60 22t-59.5 -22.5t-24.5 -69.5v-318h-130v712h130v-239q53 54 125 54q83 0 128.5 -52.5t45.5 -137.5v-337z"/>
<glyph glyph-name="i" horiz-adv-x="275" unicode="i" d="M204 610h-133v106h133v-106zM203 0h-130v521h130v-521z"/>
<glyph glyph-name="j" horiz-adv-x="275" unicode="j" d="M204 610h-133v106h133v-106zM203 -46q0 -61 -38.5 -105t-113.5 -44h-74v110h50q46 0 46 47v559h130v-567z"/>
<glyph glyph-name="k" horiz-adv-x="559" unicode="k" d="M547 0h-161l-128 217l-55 -62v-155h-130v712h130v-404l173 213h157l-186 -210z"/>
<glyph glyph-name="l" horiz-adv-x="325" unicode="l" d="M294 0h-74q-75 0 -113.5 44t-38.5 105v563h130v-555q0 -47 46 -47h50v-110z"/>
<glyph glyph-name="m" horiz-adv-x="876" unicode="m" d="M809 0h-130v315q0 49 -25.5 72t-60.5 23t-61 -22.5t-26 -69.5v-318h-130v315q0 49 -25.5 72t-60.5 23q-36 0 -61.5 -23t-25.5 -72v-315h-130v521h127v-48q52 54 130 54q90 0 138 -66q63 66 156 66q82 0 128 -46q57 -57 57 -148v-333z"/>
<glyph glyph-name="n" horiz-adv-x="573" unicode="n" d="M506 0h-130v315q0 49 -25.5 72t-60.5 23q-36 0 -61.5 -23t-25.5 -72v-315h-130v521h127v-48q51 54 130 54q77 0 123 -46q53 -53 53 -148v-333z"/>
<glyph glyph-name="o" d="M362 261q0 96 -30 126q-23 23 -61 23q-37 0 -60 -23q-30 -30 -30 -126q0 -97 30 -127q23 -23 60 -23q38 0 61 23q30 30 30 127zM492 261q0 -75 -12.5 -121.5t-46.5 -81.5q-60 -64 -162 -64q-101 0 -161 64q-34 35 -46.5 81.5t-12.5 121.5q0 74 12.5 120.5t46.5 81.5 q60 64 161 64q102 0 162 -64q34 -35 46.5 -81.5t12.5 -120.5z" unicode="o"/>
<glyph glyph-name="p" horiz-adv-x="560" unicode="p" d="M379 261q0 74 -17 111.5t-71 37.5t-71 -37.5t-17 -111.5q0 -36 3 -60t11.5 -46t27 -33t46.5 -11t46.5 11t27 33t11.5 46t3 60zM509 261q0 -52 -2 -82.5t-14.5 -72t-36.5 -65.5q-47 -47 -127 -47q-79 0 -126 52v-237h-130v712h126v-49q49 55 130 55q80 0 127 -47 q24 -24 36.5 -65t14.5 -71.5t2 -82.5z"/>
<glyph glyph-name="q" horiz-adv-x="561" unicode="q" d="M358 261q0 74 -17.5 111.5t-71.5 37.5t-71 -37.5t-17 -111.5q0 -36 3 -60t11.5 -46t27 -33t46.5 -11q54 0 71.5 38t17.5 112zM488 -191h-130v237q-47 -52 -127 -52t-127 47q-24 24 -36.5 65.5t-14.5 72t-2 82.5t2 82.5t14.5 71.5t36.5 65q47 47 128 47q80 0 129 -55v49 h127v-712z"/>
<glyph glyph-name="r" horiz-adv-x="455" unicode="r" d="M454 478l-98 -99q-31 31 -69 31q-33 0 -58.5 -25t-25.5 -71v-314h-130v521h127v-50q20 24 55.5 40t75.5 16q74 0 123 -49z"/>
<glyph glyph-name="s" horiz-adv-x="501" unicode="s" d="M465 164q0 -83 -62 -126.5t-159 -43.5q-72 0 -124.5 15t-97.5 60l85 85q49 -49 139 -49q38 0 65 13.5t27 40.5q0 43 -55 48l-82 8q-152 15 -152 146q0 78 58.5 122t142.5 44q134 0 199 -61l-80 -81q-39 35 -121 35q-37 0 -55.5 -14.5t-18.5 -35.5q0 -40 54 -45l82 -8 q76 -7 115.5 -46.5t39.5 -106.5z"/>
<glyph glyph-name="t" horiz-adv-x="352" unicode="t" d="M307 0h-71q-74 0 -112.5 44t-38.5 105v258h-55v99h55v154h130v-154h92v-99h-92v-250q0 -47 45 -47h47v-110z"/>
<glyph glyph-name="u" horiz-adv-x="573" unicode="u" d="M500 0h-127v48q-51 -54 -130 -54q-77 0 -123 46q-53 53 -53 148v333h130v-315q0 -49 25.5 -72t60.5 -23q36 0 61.5 23t25.5 72v315h130v-521z"/>
<glyph glyph-name="v" horiz-adv-x="493" unicode="v" d="M489 521l-191 -521h-102l-192 521h137l106 -322l105 322h137z"/>
<glyph glyph-name="w" horiz-adv-x="759" unicode="w" d="M755 521l-159 -521h-107l-109 327l-109 -327h-107l-160 521h138l84 -322l106 322h95l107 -322l84 322h137z"/>
<glyph glyph-name="x" horiz-adv-x="527" unicode="x" d="M515 0h-156l-96 156l-95 -156h-156l180 266l-173 255h156l88 -149l89 149h156l-173 -255z"/>
<glyph glyph-name="y" horiz-adv-x="494" unicode="y" d="M490 521l-223 -605q-17 -45 -39 -67q-40 -40 -112 -40h-51v117h30q28 0 41.5 9.5t23.5 37.5l22 64l-178 484h137l108 -322l104 322h137z"/>
<glyph glyph-name="z" horiz-adv-x="478" unicode="z" d="M434 0h-397v99l231 305h-218v117h384v-99l-234 -305h234v-117z"/>
<glyph glyph-name="braceleft" horiz-adv-x="457" unicode="{" d="M414 -74h-102q-75 0 -112 37q-42 42 -42 111v145q0 43 -17 60q-19 19 -52 19h-46v116h46q33 0 52 19q17 17 17 60v145q0 69 42 111q37 37 112 37h102v-117h-53q-43 0 -57 -14q-16 -17 -16 -64v-135q0 -33 -13 -55.5t-25 -30t-31 -14.5q19 -7 31 -14.5t25 -30t13 -55.5 v-135q0 -47 16 -64q14 -14 57 -14h53v-117z"/>
<glyph glyph-name="bar" horiz-adv-x="350" unicode="|" d="M240 -74h-130v860h130v-860z"/>
<glyph glyph-name="braceright" horiz-adv-x="457" unicode="}" d="M414 298h-46q-33 0 -52 -19q-17 -17 -17 -60v-145q0 -69 -42 -111q-37 -37 -112 -37h-102v117h53q43 0 57 14q16 17 16 64v135q0 33 13 55.5t25 30t31 14.5q-19 7 -31 14.5t-25 30t-13 55.5v135q0 47 -16 64q-14 14 -57 14h-53v117h102q75 0 112 -37q42 -42 42 -111v-145 q0 -43 17 -60q19 -19 52 -19h46v-116z"/>
<glyph glyph-name="asciitilde" horiz-adv-x="606" unicode="~" d="M569 281q-47 -47 -83.5 -66.5t-81.5 -19.5q-53 0 -117 34q-46 24 -82 24q-44 0 -86 -42l-82 82q48 48 83.5 67t80.5 19q53 0 117 -34q46 -24 81 -24q45 0 87 42z"/>
<glyph glyph-name="uni00A0" horiz-adv-x="232" unicode=" "/>
<glyph glyph-name="exclamdown" horiz-adv-x="347" unicode="¡" d="M224 388h-137v133h137v-133zM236 -191h-161l32 489h97z"/>
<glyph glyph-name="cent" horiz-adv-x="499" unicode="¢" d="M246 225v282q-21 -6 -38 -26q-31 -39 -31 -115t31 -115q15 -20 38 -26zM469 180q-58 -61 -136 -75v-105h-101v105q-83 17 -134 83.5t-51 177.5t51 177.5t134 83.5v85h101v-85q78 -14 136 -75l-86 -84q-31 32 -64 41v-286q33 9 64 41z"/>
<glyph glyph-name="sterling" horiz-adv-x="579" unicode="£" d="M534 0h-433v297h-61v100h61v81q0 113 73 176.5t178 63.5q58 0 100.5 -17t81.5 -56l-91 -91q-40 40 -91 40q-52 0 -82.5 -31t-30.5 -91v-75h113v-100h-113v-173h295v-124z"/>
<glyph glyph-name="currency" horiz-adv-x="669" unicode="¤" d="M452 286q0 49 -34.5 83t-83.5 34t-83 -34t-34 -83t34 -83t83 -34t83.5 34t34.5 83zM610 96l-85 -86l-74 73q-54 -32 -117 -32q-62 0 -116 32l-74 -73l-86 86l74 73q-33 56 -33 117t33 117l-74 73l86 86l74 -73q54 32 116 32q63 0 117 -32l74 73l85 -86l-73 -73 q32 -54 32 -117t-32 -117z"/>
<glyph glyph-name="yen" horiz-adv-x="571" unicode="¥" d="M568 712l-136 -270h74v-100h-125l-26 -50v-51h151v-100h-151v-141h-138v141h-152v100h152v51l-26 50h-126v100h75l-137 270h151l132 -288l132 288h150z"/>
<glyph glyph-name="brokenbar" horiz-adv-x="353" unicode="¦" d="M240 -74h-130v350h130v-350zM240 436h-130v350h130v-350z"/>
<glyph glyph-name="section" horiz-adv-x="531" unicode="§" d="M348 269q0 43 -25 68q-23 21 -56 21q-36 0 -57 -21q-24 -24 -24 -68q0 -43 24 -67q21 -21 57 -21q35 0 56 21q25 25 25 67zM473 274q0 -50 -28 -90t-62 -59q81 -41 81 -139q0 -87 -58.5 -135t-139.5 -48t-139.5 44.5t-59.5 133.5h125q2 -28 21.5 -45.5t52.5 -17.5 q34 0 53.5 17.5t19.5 46.5q0 51 -70 74l-62 21q-75 25 -110.5 68t-35.5 120q0 51 28 90.5t63 58.5q-76 40 -76 131q0 73 50 123t142 50q94 0 142.5 -48t49.5 -124h-122q-3 61 -70 61q-34 0 -52 -16.5t-18 -42.5q0 -44 67 -66l62 -20q75 -24 110.5 -68t35.5 -120z"/>
<glyph glyph-name="dieresis" horiz-adv-x="500" unicode="¨" d="M195 606h-111v125h111v-125zM416 606h-111v125h111v-125z"/>
<glyph glyph-name="copyright" horiz-adv-x="844" unicode="©" d="M561 212q-58 -52 -132 -52q-78 0 -128.5 51.5t-50.5 144.5t50.5 145t128.5 52q71 0 132 -53l-56 -56q-38 32 -76 32q-46 0 -70 -32t-24 -88t24 -88t70 -32q38 0 76 32zM697 356q0 120 -79 200.5t-196 80.5t-196.5 -80.5t-79.5 -200.5t79.5 -200.5t196.5 -80.5t196 80.5 t79 200.5zM784 356q0 -150 -106 -256t-256 -106t-256 106t-106 256t106 256t256 106t256 -106t106 -256z"/>
<glyph glyph-name="ordfeminine" horiz-adv-x="454" unicode="ª" d="M287 449v23h-81q-27 0 -41.5 -12.5t-14.5 -34.5q0 -46 57 -46q45 0 65 19q15 14 15 51zM392 296h-103v36q-40 -40 -101 -40q-69 0 -105 38q-35 35 -35 92q0 53 36.5 87t105.5 34h97v20q0 34 -18 49.5t-59 15.5q-29 0 -45.5 -7.5t-33.5 -26.5l-67 65q30 33 64 45.5 t87 12.5q177 0 177 -147v-274z"/>
<glyph glyph-name="guillemotleft" horiz-adv-x="628" unicode="«" d="M283 27l-249 248l249 248v-155l-94 -93l94 -93v-155zM562 27l-250 248l250 248v-155l-96 -93l96 -93v-155z"/>
<glyph glyph-name="logicalnot" d="M497 94h-121v145h-330v121h451v-266z" unicode="¬"/>
<glyph glyph-name="uni00AD" horiz-adv-x="426" unicode="­" d="M367 225h-308v121h308v-121z"/>
<glyph glyph-name="registered" horiz-adv-x="844" unicode="®" d="M489 428q0 21 -15 35.5t-38 14.5h-60v-100h60q23 0 38 14.5t15 35.5zM585 164h-98l-70 149h-41v-149h-86v385h157q57 0 92.5 -35.5t35.5 -85.5q0 -37 -20 -63.5t-51 -38.5zM698 356q0 120 -79.5 200.5t-196.5 80.5t-196.5 -80.5t-79.5 -200.5t79.5 -200.5t196.5 -80.5 t196.5 80.5t79.5 200.5zM784 356q0 -150 -106 -256t-256 -106t-256 106t-106 256t106 256t256 106t256 -106t106 -256z"/>
<glyph glyph-name="macron" horiz-adv-x="500" unicode="¯" d="M408 623h-317v88h317v-88z"/>
<glyph glyph-name="degree" horiz-adv-x="478" unicode="°" d="M318 542q0 34 -23.5 57t-56.5 23t-55.5 -23t-22.5 -57t23 -57t56 -23t56 23t23 57zM423 542q0 -76 -53.5 -130t-130.5 -54t-130.5 54t-53.5 130q0 77 54 131t130 54t130 -54t54 -131z"/>
<glyph glyph-name="plusminus" d="M493 0h-443v122h443v-122zM493 341h-160v-161h-122v161h-161v121h161v161h122v-161h160v-121z" unicode="±"/>
<glyph glyph-name="twosuperior" horiz-adv-x="358" unicode="²" d="M315 285h-272v85l156 171q22 23 22 47q0 20 -11 31.5t-31 11.5q-42 0 -42 -44h-94q0 60 38.5 94.5t97.5 34.5q60 0 98 -34.5t38 -93.5q0 -30 -12 -51.5t-40 -52.5l-105 -114h157v-85z"/>
<glyph glyph-name="threesuperior" horiz-adv-x="368" unicode="³" d="M325 412q0 -63 -40.5 -97t-100.5 -34q-59 0 -100 33t-41 99h94q0 -23 13.5 -35.5t33.5 -12.5q21 0 34 13t13 37q0 21 -13.5 34.5t-35.5 13.5h-13v81h13q22 0 33 12.5t11 30.5q0 21 -12 32.5t-30 11.5t-30 -11t-12 -31h-94q0 58 39 92.5t97 34.5q59 0 97.5 -35.5 t38.5 -90.5q0 -57 -45 -84q50 -32 50 -94z"/>
<glyph glyph-name="acute" horiz-adv-x="500" unicode="´" d="M396 774l-114 -170h-87l64 170h137z"/>
<glyph glyph-name="uni00B5" horiz-adv-x="576" unicode="µ" d="M503 0h-127v48q-51 -54 -130 -54q-27 0 -46 14v-199h-130v712h130v-315q0 -49 25.5 -72t60.5 -23q36 0 61.5 23t25.5 72v315h130v-521z"/>
<glyph glyph-name="paragraph" horiz-adv-x="668" unicode="¶" d="M585 -191h-130v779h-100v-779h-130v499q-76 0 -133 59.5t-57 141.5q0 97 62.5 150t168.5 53h319v-903z"/>
<glyph glyph-name="periodcentered" horiz-adv-x="285" unicode="·" d="M217 212h-149v148h149v-148z"/>
<glyph glyph-name="cedilla" horiz-adv-x="500" unicode="¸" d="M325 -60l-44 -146h-121l69 146h96z"/>
<glyph glyph-name="onesuperior" horiz-adv-x="292" unicode="¹" d="M223 285h-95v321l-90 -78v106l90 78h95v-427z"/>
<glyph glyph-name="ordmasculine" horiz-adv-x="462" unicode="º" d="M302 504q0 78 -23 101q-18 18 -48 18t-48 -18q-23 -23 -23 -101q0 -77 23 -100q18 -18 48 -18t48 18q23 23 23 100zM407 504q0 -59 -10 -95.5t-38 -65.5q-49 -51 -128 -51t-128 51q-28 29 -38 65.5t-10 95.5t10.5 96t37.5 66q49 51 128 51t128 -51q27 -29 37.5 -66 t10.5 -96z"/>
<glyph glyph-name="guillemotright" horiz-adv-x="628" unicode="»" d="M316 275l-249 -248v155l95 93l-95 93v155zM595 275l-250 -248v155l94 93l-94 93v155z"/>
<glyph glyph-name="onequarter" horiz-adv-x="836" unicode="¼" d="M223 285h-95v321l-90 -78v106l90 78h95v-427zM796 57h-33v-57h-90v57h-176v89l143 281h103l-144 -281h74v62h90v-62h33v-89zM625 712l-337 -712h-102l337 712h102z"/>
<glyph glyph-name="onehalf" horiz-adv-x="862" unicode="½" d="M223 285h-95v321l-90 -78v106l90 78h95v-427zM620 712l-337 -712h-101l337 712h101zM819 0h-272v85l156 171q23 24 23 47q0 20 -11.5 31.5t-31.5 11.5q-41 0 -41 -44h-95q0 60 38.5 94.5t97.5 34.5q60 0 98 -34.5t38 -93.5q0 -30 -12 -51.5t-40 -52.5l-105 -114h157v-85z "/>
<glyph glyph-name="threequarters" horiz-adv-x="865" unicode="¾" d="M825 57h-33v-57h-90v57h-176v89l143 281h103l-144 -281h74v62h90v-62h33v-89zM325 412q0 -63 -40.5 -97t-100.5 -34q-59 0 -100 33t-41 99h94q0 -23 13.5 -35.5t33.5 -12.5q21 0 34 13t13 37q0 21 -13.5 34.5t-35.5 13.5h-13v81h13q22 0 33 12.5t11 30.5q0 21 -12 32.5 t-30 11.5t-30 -11t-12 -31h-94q0 58 39 92.5t97 34.5q59 0 97.5 -35.5t38.5 -90.5q0 -57 -45 -84q50 -32 50 -94zM657 712l-337 -712h-102l337 712h102z"/>
<glyph glyph-name="questiondown" horiz-adv-x="523" unicode="¿" d="M311 388h-138v133h138v-133zM457 4q0 -91 -60.5 -146t-150.5 -55q-88 0 -149 54t-61 146q0 60 49 125l74 99q18 23 18 51v20h130v-30q0 -54 -38 -104l-74 -95q-29 -38 -29 -67q0 -36 21.5 -59t58.5 -23q38 0 59.5 24t21.5 60h130z"/>
<glyph glyph-name="Agrave" horiz-adv-x="638" unicode="À" d="M372 781h-87l-114 170h137zM409 243l-87 259l-90 -259h177zM633 0h-145l-42 126h-253l-43 -126h-145l259 712h109z"/>
<glyph glyph-name="Aacute" horiz-adv-x="638" unicode="Á" d="M463 951l-114 -170h-87l64 170h137zM409 243l-87 259l-90 -259h177zM633 0h-145l-42 126h-253l-43 -126h-145l259 712h109z"/>
<glyph glyph-name="Acircumflex" horiz-adv-x="638" unicode="Â" d="M501 781h-101l-83 91l-83 -91h-101l132 169h104zM409 243l-87 259l-90 -259h177zM633 0h-145l-42 126h-253l-43 -126h-145l259 712h109z"/>
<glyph glyph-name="Atilde" horiz-adv-x="638" unicode="Ã" d="M497 849q-59 -59 -113 -59q-40 0 -78 23q-31 18 -56 18q-29 0 -58 -29l-56 57q58 59 112 59q39 0 77 -23q30 -18 55 -18q30 0 59 29zM409 243l-87 259l-90 -259h177zM633 0h-145l-42 126h-253l-43 -126h-145l259 712h109z"/>
<glyph glyph-name="Adieresis" horiz-adv-x="638" unicode="Ä" d="M264 783h-111v125h111v-125zM485 783h-111v125h111v-125zM409 243l-87 259l-90 -259h177zM633 0h-145l-42 126h-253l-43 -126h-145l259 712h109z"/>
<glyph glyph-name="Aring" horiz-adv-x="638" unicode="Å" d="M375 884q0 24 -17 41t-41 17t-41 -17t-17 -41t17 -41.5t41 -17.5t41 17.5t17 41.5zM448 884q0 -54 -38.5 -92.5t-92.5 -38.5t-92.5 38.5t-38.5 92.5t38.5 92.5t92.5 38.5t92.5 -38t38.5 -93zM409 243l-87 259l-90 -259h177zM633 0h-145l-42 126h-253l-43 -126h-145 l259 712h109z"/>
<glyph glyph-name="AE" horiz-adv-x="979" unicode="Æ" d="M458 273v315l-165 -315h165zM926 0h-468v156h-225l-81 -156h-149l372 712h551v-124h-330v-168h282v-124h-282v-172h330v-124z"/>
<glyph glyph-name="Ccedilla" horiz-adv-x="620" unicode="Ç" d="M379 -60l-44 -146h-121l69 146h96zM583 219q-18 -107 -88 -166t-174 -59q-114 0 -192 78q-46 46 -58 107q-12 60 -12 177t12 177q12 61 58 107q78 78 192 78q104 0 174 -59t88 -166h-141q-25 101 -120 101q-58 0 -89 -37q-22 -23 -28.5 -60.5t-6.5 -140.5t6.5 -140.5 t28.5 -60.5q31 -37 89 -37q95 0 120 101h141z"/>
<glyph glyph-name="Egrave" horiz-adv-x="605" unicode="È" d="M365 781h-87l-114 170h137zM552 0h-469v712h469v-124h-330v-167h281v-124h-281v-173h330v-124z"/>
<glyph glyph-name="Eacute" horiz-adv-x="605" unicode="É" d="M455 951l-114 -170h-87l64 170h137zM552 0h-469v712h469v-124h-330v-167h281v-124h-281v-173h330v-124z"/>
<glyph glyph-name="Ecircumflex" horiz-adv-x="605" unicode="Ê" d="M494 781h-101l-83 91l-83 -91h-101l132 169h104zM552 0h-469v712h469v-124h-330v-167h281v-124h-281v-173h330v-124z"/>
<glyph glyph-name="Edieresis" horiz-adv-x="605" unicode="Ë" d="M255 783h-111v125h111v-125zM476 783h-111v125h111v-125zM552 0h-469v712h469v-124h-330v-167h281v-124h-281v-173h330v-124z"/>
<glyph glyph-name="Igrave" horiz-adv-x="305" unicode="Ì" d="M222 781h-87l-114 170h137zM222 0h-139v712h139v-712z"/>
<glyph glyph-name="Iacute" horiz-adv-x="305" unicode="Í" d="M284 951l-114 -170h-87l64 170h137zM222 0h-139v712h139v-712z"/>
<glyph glyph-name="Icircumflex" horiz-adv-x="305" unicode="Î" d="M336 781h-101l-83 91l-83 -91h-101l132 169h104zM222 0h-139v712h139v-712z"/>
<glyph glyph-name="Idieresis" horiz-adv-x="305" unicode="Ï" d="M98 783h-111v125h111v-125zM319 783h-111v125h111v-125zM222 0h-139v712h139v-712z"/>
<glyph glyph-name="Eth" horiz-adv-x="682" unicode="Ð" d="M484 354q0 93 -4.5 126.5t-20.5 56.5q-37 52 -109 52h-105v-176h116v-106h-116v-184h105q76 0 111 53q15 22 19 52.5t4 125.5zM623 356v-31q0 -96 -11 -146t-52 -96q-75 -83 -199 -83h-255v307h-69v106h69v299h257q123 0 197 -84q41 -47 52 -95.5t11 -137.5v-39z"/>
<glyph glyph-name="Ntilde" horiz-adv-x="711" unicode="Ñ" d="M536 849q-59 -59 -113 -59q-40 0 -78 23q-31 18 -56 18q-29 0 -58 -29l-56 57q58 59 112 59q39 0 77 -23q30 -18 55 -18q30 0 59 29zM628 0h-124l-282 437v-437h-139v712h124l282 -436v436h139v-712z"/>
<glyph glyph-name="Ograve" horiz-adv-x="644" unicode="Ò" d="M377 781h-87l-114 170h137zM446 356q0 100 -7 138.5t-28 61.5q-33 38 -89 38q-57 0 -90 -38q-21 -23 -27.5 -61t-6.5 -139t6.5 -139t27.5 -61q33 -38 90 -38q56 0 89 38q21 23 28 61.5t7 138.5zM585 356v-10q0 -74 -2.5 -111.5t-19 -83.5t-49.5 -79q-78 -78 -192 -78 q-115 0 -193 78q-46 46 -58 104t-12 161v19v19q0 103 12 161t58 104q78 78 193 78q114 0 192 -78q33 -33 49.5 -79t19 -83.5t2.5 -111.5v-10z"/>
<glyph glyph-name="Oacute" horiz-adv-x="644" unicode="Ó" d="M468 951l-114 -170h-87l64 170h137zM446 356q0 100 -7 138.5t-28 61.5q-33 38 -89 38q-57 0 -90 -38q-21 -23 -27.5 -61t-6.5 -139t6.5 -139t27.5 -61q33 -38 90 -38q56 0 89 38q21 23 28 61.5t7 138.5zM585 356v-10q0 -74 -2.5 -111.5t-19 -83.5t-49.5 -79 q-78 -78 -192 -78q-115 0 -193 78q-46 46 -58 104t-12 161v19v19q0 103 12 161t58 104q78 78 193 78q114 0 192 -78q33 -33 49.5 -79t19 -83.5t2.5 -111.5v-10z"/>
<glyph glyph-name="Ocircumflex" horiz-adv-x="644" unicode="Ô" d="M506 781h-101l-83 91l-83 -91h-101l132 169h104zM446 356q0 100 -7 138.5t-28 61.5q-33 38 -89 38q-57 0 -90 -38q-21 -23 -27.5 -61t-6.5 -139t6.5 -139t27.5 -61q33 -38 90 -38q56 0 89 38q21 23 28 61.5t7 138.5zM585 356v-10q0 -74 -2.5 -111.5t-19 -83.5t-49.5 -79 q-78 -78 -192 -78q-115 0 -193 78q-46 46 -58 104t-12 161v19v19q0 103 12 161t58 104q78 78 193 78q114 0 192 -78q33 -33 49.5 -79t19 -83.5t2.5 -111.5v-10z"/>
<glyph glyph-name="Otilde" horiz-adv-x="644" unicode="Õ" d="M502 849q-59 -59 -113 -59q-40 0 -78 23q-31 18 -56 18q-29 0 -58 -29l-56 57q58 59 112 59q39 0 77 -23q30 -18 55 -18q30 0 59 29zM446 356q0 100 -7 138.5t-28 61.5q-33 38 -89 38q-57 0 -90 -38q-21 -23 -27.5 -61t-6.5 -139t6.5 -139t27.5 -61q33 -38 90 -38 q56 0 89 38q21 23 28 61.5t7 138.5zM585 356v-10q0 -74 -2.5 -111.5t-19 -83.5t-49.5 -79q-78 -78 -192 -78q-115 0 -193 78q-46 46 -58 104t-12 161v19v19q0 103 12 161t58 104q78 78 193 78q114 0 192 -78q33 -33 49.5 -79t19 -83.5t2.5 -111.5v-10z"/>
<glyph glyph-name="Odieresis" horiz-adv-x="644" unicode="Ö" d="M267 783h-111v125h111v-125zM488 783h-111v125h111v-125zM446 356q0 100 -7 138.5t-28 61.5q-33 38 -89 38q-57 0 -90 -38q-21 -23 -27.5 -61t-6.5 -139t6.5 -139t27.5 -61q33 -38 90 -38q56 0 89 38q21 23 28 61.5t7 138.5zM585 356v-10q0 -74 -2.5 -111.5t-19 -83.5 t-49.5 -79q-78 -78 -192 -78q-115 0 -193 78q-46 46 -58 104t-12 161v19v19q0 103 12 161t58 104q78 78 193 78q114 0 192 -78q33 -33 49.5 -79t19 -83.5t2.5 -111.5v-10z"/>
<glyph glyph-name="multiply" d="M494 145l-82 -82l-141 141l-140 -141l-82 82l141 141l-141 141l82 82l140 -141l141 141l82 -82l-141 -141z" unicode="×"/>
<glyph glyph-name="Oslash" horiz-adv-x="652" unicode="Ø" d="M385 578q-26 16 -63 16q-57 0 -90 -38q-21 -23 -27.5 -61t-6.5 -139q0 -114 9 -151zM446 356q0 110 -10 151l-178 -372q28 -17 64 -17q56 0 89 38q21 23 28 61.5t7 138.5zM585 356v-10q0 -74 -2.5 -111.5t-19 -83.5t-49.5 -79q-78 -78 -192 -78q-65 0 -113 22l-29 -60 h-99l53 111l-5 5q-46 46 -58 104t-12 161v19v19q0 103 12 161t58 104q78 78 193 78q65 0 113 -22l29 60h98l-53 -111l5 -5q33 -33 49.5 -79t19 -83.5t2.5 -111.5v-10z"/>
<glyph glyph-name="Ugrave" horiz-adv-x="668" unicode="Ù" d="M389 781h-87l-114 170h137zM596 244q0 -111 -75 -180.5t-187 -69.5t-187 69.5t-75 180.5v468h139v-463q0 -61 33 -96t90 -35t90.5 35t33.5 96v463h138v-468z"/>
<glyph glyph-name="Uacute" horiz-adv-x="668" unicode="Ú" d="M480 951l-114 -170h-87l64 170h137zM596 244q0 -111 -75 -180.5t-187 -69.5t-187 69.5t-75 180.5v468h139v-463q0 -61 33 -96t90 -35t90.5 35t33.5 96v463h138v-468z"/>
<glyph glyph-name="Ucircumflex" horiz-adv-x="668" unicode="Û" d="M518 781h-101l-83 91l-83 -91h-101l132 169h104zM596 244q0 -111 -75 -180.5t-187 -69.5t-187 69.5t-75 180.5v468h139v-463q0 -61 33 -96t90 -35t90.5 35t33.5 96v463h138v-468z"/>
<glyph glyph-name="Udieresis" horiz-adv-x="668" unicode="Ü" d="M279 783h-111v125h111v-125zM500 783h-111v125h111v-125zM596 244q0 -111 -75 -180.5t-187 -69.5t-187 69.5t-75 180.5v468h139v-463q0 -61 33 -96t90 -35t90.5 35t33.5 96v463h138v-468z"/>
<glyph glyph-name="Yacute" horiz-adv-x="572" unicode="Ý" d="M431 951l-114 -170h-87l64 170h137zM569 712l-214 -420v-292h-138v292l-214 420h151l133 -287l131 287h151z"/>
<glyph glyph-name="Thorn" horiz-adv-x="633" unicode="Þ" d="M455 360q0 44 -28 70.5t-75 26.5h-130v-195h130q47 0 75 27t28 71zM594 360q0 -94 -64 -158t-171 -64h-137v-138h-139v712h139v-131h137q107 0 171 -63.5t64 -157.5z"/>
<glyph glyph-name="germandbls" horiz-adv-x="574" unicode="ß" d="M516 161q0 -79 -41 -119q-42 -42 -126 -42h-52v110h26q29 0 45 15q17 15 17 47v144q0 30 -15 45q-16 16 -45 16h-28v102h28q26 0 43 15t17 45q0 28 -19 45q-23 21 -70 21q-50 0 -71.5 -23.5t-21.5 -70.5v-511h-130v521q0 100 61.5 148.5t163.5 48.5q99 0 158 -44t59 -131 q0 -76 -61 -113q31 -16 46.5 -40.5t15.5 -68.5v-160z"/>
<glyph glyph-name="agrave" horiz-adv-x="534" unicode="à" d="M316 604h-87l-114 170h137zM337 192v28h-103q-35 0 -54 -15.5t-19 -43.5q0 -60 75 -60q56 0 82 25q19 18 19 66zM467 0h-127v45q-27 -27 -55.5 -38.5t-72.5 -11.5q-87 0 -133 46q-43 45 -43 117q0 66 45.5 108.5t132.5 42.5h123v26q0 43 -23 62.5t-74 19.5 q-37 0 -58 -9.5t-42 -33.5l-83 81q37 41 79 56.5t109 15.5q222 0 222 -184v-343z"/>
<glyph glyph-name="aacute" horiz-adv-x="534" unicode="á" d="M407 774l-114 -170h-87l64 170h137zM337 192v28h-103q-35 0 -54 -15.5t-19 -43.5q0 -60 75 -60q56 0 82 25q19 18 19 66zM467 0h-127v45q-27 -27 -55.5 -38.5t-72.5 -11.5q-87 0 -133 46q-43 45 -43 117q0 66 45.5 108.5t132.5 42.5h123v26q0 43 -23 62.5t-74 19.5 q-37 0 -58 -9.5t-42 -33.5l-83 81q37 41 79 56.5t109 15.5q222 0 222 -184v-343z"/>
<glyph glyph-name="acircumflex" horiz-adv-x="534" unicode="â" d="M445 604h-101l-83 91l-83 -91h-101l132 169h104zM337 192v28h-103q-35 0 -54 -15.5t-19 -43.5q0 -60 75 -60q56 0 82 25q19 18 19 66zM467 0h-127v45q-27 -27 -55.5 -38.5t-72.5 -11.5q-87 0 -133 46q-43 45 -43 117q0 66 45.5 108.5t132.5 42.5h123v26q0 43 -23 62.5 t-74 19.5q-37 0 -58 -9.5t-42 -33.5l-83 81q37 41 79 56.5t109 15.5q222 0 222 -184v-343z"/>
<glyph glyph-name="atilde" horiz-adv-x="534" unicode="ã" d="M436 671q-58 -58 -113 -58q-39 0 -77 22q-31 18 -56 18q-30 0 -58 -28l-57 57q58 58 112 58q40 0 78 -22q30 -19 55 -19q29 0 58 29zM337 192v28h-103q-35 0 -54 -15.5t-19 -43.5q0 -60 75 -60q56 0 82 25q19 18 19 66zM467 0h-127v45q-27 -27 -55.5 -38.5t-72.5 -11.5 q-87 0 -133 46q-43 45 -43 117q0 66 45.5 108.5t132.5 42.5h123v26q0 43 -23 62.5t-74 19.5q-37 0 -58 -9.5t-42 -33.5l-83 81q37 41 79 56.5t109 15.5q222 0 222 -184v-343z"/>
<glyph glyph-name="adieresis" horiz-adv-x="534" unicode="ä" d="M207 606h-111v125h111v-125zM428 606h-111v125h111v-125zM337 192v28h-103q-35 0 -54 -15.5t-19 -43.5q0 -60 75 -60q56 0 82 25q19 18 19 66zM467 0h-127v45q-27 -27 -55.5 -38.5t-72.5 -11.5q-87 0 -133 46q-43 45 -43 117q0 66 45.5 108.5t132.5 42.5h123v26 q0 43 -23 62.5t-74 19.5q-37 0 -58 -9.5t-42 -33.5l-83 81q37 41 79 56.5t109 15.5q222 0 222 -184v-343z"/>
<glyph glyph-name="aring" horiz-adv-x="534" unicode="å" d="M319 715q0 24 -17 41t-41 17t-41 -17t-17 -41t17 -41.5t41 -17.5t41 17.5t17 41.5zM392 715q0 -54 -38.5 -92.5t-92.5 -38.5t-92.5 38.5t-38.5 92.5t38.5 92.5t92.5 38.5t92.5 -38t38.5 -93zM337 192v28h-103q-35 0 -54 -15.5t-19 -43.5q0 -60 75 -60q56 0 82 25 q19 18 19 66zM467 0h-127v45q-27 -27 -55.5 -38.5t-72.5 -11.5q-87 0 -133 46q-43 45 -43 117q0 66 45.5 108.5t132.5 42.5h123v26q0 43 -23 62.5t-74 19.5q-37 0 -58 -9.5t-42 -33.5l-83 81q37 41 79 56.5t109 15.5q222 0 222 -184v-343z"/>
<glyph glyph-name="ae" horiz-adv-x="838" unicode="æ" d="M663 309q-1 31 -12 56q-24 54 -87 54t-87 -54q-11 -25 -12 -56h198zM337 192v28h-103q-35 0 -54 -15.5t-19 -43.5q0 -60 75 -60q56 0 82 25q19 18 19 66zM791 220h-326q0 -52 30.5 -84t83.5 -32q41 0 66.5 11.5t51.5 37.5l79 -77q-43 -43 -87 -62.5t-111 -19.5 q-120 0 -183 73q-40 -44 -81.5 -58.5t-101.5 -14.5q-86 0 -133 47q-43 45 -43 117q0 66 45.5 108.5t132.5 42.5h123v26q0 43 -23 62.5t-74 19.5q-37 0 -58 -9.5t-42 -33.5l-83 81q37 41 79 56.5t109 15.5q119 0 171 -57q56 57 148 57q106 0 166.5 -69.5t60.5 -179.5v-58z "/>
<glyph glyph-name="ccedilla" horiz-adv-x="480" unicode="ç" d="M325 -60l-44 -146h-121l69 146h96zM452 65q-68 -71 -172 -71q-33 0 -64 7.5t-62.5 26t-54.5 48t-37.5 77t-14.5 108.5t14.5 108.5t37.5 76.5t54.5 48t62.5 26t64 7q105 0 172 -70l-88 -88q-38 41 -84 41t-74 -34q-29 -36 -29 -115q0 -80 29 -116q28 -34 74 -34t84 41z "/>
<glyph glyph-name="egrave" horiz-adv-x="548" unicode="è" d="M332 604h-87l-114 170h137zM373 309q-1 31 -12 56q-24 54 -87 54t-87 -54q-11 -25 -12 -56h198zM501 220h-326q0 -52 30.5 -84t83.5 -32q41 0 66.5 11.5t51.5 37.5l79 -77q-43 -43 -87 -62.5t-111 -19.5q-50 0 -90.5 12.5t-75.5 41.5t-55 83t-20 130q0 125 62 195.5 t165 70.5q106 0 166.5 -69.5t60.5 -179.5v-58z"/>
<glyph glyph-name="eacute" horiz-adv-x="548" unicode="é" d="M423 774l-114 -170h-87l64 170h137zM373 309q-1 31 -12 56q-24 54 -87 54t-87 -54q-11 -25 -12 -56h198zM501 220h-326q0 -52 30.5 -84t83.5 -32q41 0 66.5 11.5t51.5 37.5l79 -77q-43 -43 -87 -62.5t-111 -19.5q-50 0 -90.5 12.5t-75.5 41.5t-55 83t-20 130 q0 125 62 195.5t165 70.5q106 0 166.5 -69.5t60.5 -179.5v-58z"/>
<glyph glyph-name="ecircumflex" horiz-adv-x="548" unicode="ê" d="M461 604h-101l-83 91l-83 -91h-101l132 169h104zM373 309q-1 31 -12 56q-24 54 -87 54t-87 -54q-11 -25 -12 -56h198zM501 220h-326q0 -52 30.5 -84t83.5 -32q41 0 66.5 11.5t51.5 37.5l79 -77q-43 -43 -87 -62.5t-111 -19.5q-50 0 -90.5 12.5t-75.5 41.5t-55 83t-20 130 q0 125 62 195.5t165 70.5q106 0 166.5 -69.5t60.5 -179.5v-58z"/>
<glyph glyph-name="edieresis" horiz-adv-x="548" unicode="ë" d="M222 606h-111v125h111v-125zM443 606h-111v125h111v-125zM373 309q-1 31 -12 56q-24 54 -87 54t-87 -54q-11 -25 -12 -56h198zM501 220h-326q0 -52 30.5 -84t83.5 -32q41 0 66.5 11.5t51.5 37.5l79 -77q-43 -43 -87 -62.5t-111 -19.5q-50 0 -90.5 12.5t-75.5 41.5t-55 83 t-20 130q0 125 62 195.5t165 70.5q106 0 166.5 -69.5t60.5 -179.5v-58z"/>
<glyph glyph-name="igrave" horiz-adv-x="275" unicode="ì" d="M202 604h-87l-114 170h137zM203 0h-130v521h130v-521z"/>
<glyph glyph-name="iacute" horiz-adv-x="275" unicode="í" d="M273 774l-114 -170h-87l64 170h137zM203 0h-130v521h130v-521z"/>
<glyph glyph-name="icircumflex" horiz-adv-x="275" unicode="î" d="M321 604h-101l-83 91l-83 -91h-101l132 169h104zM203 0h-130v521h130v-521z"/>
<glyph glyph-name="idieresis" horiz-adv-x="275" unicode="ï" d="M83 606h-111v125h111v-125zM304 606h-111v125h111v-125zM203 0h-130v521h130v-521z"/>
<glyph glyph-name="eth" d="M356 254q0 92 -27 120q-22 22 -58 22q-35 0 -57 -22q-28 -29 -28 -120q0 -92 28 -121q22 -22 57 -22q36 0 58 22q27 28 27 121zM486 254q0 -73 -12.5 -118t-45.5 -80q-60 -62 -157 -62t-157 62q-33 35 -45.5 80t-12.5 118q0 72 12.5 117t45.5 80q32 34 89 49q29 8 58 8 q12 0 18 -1l-34 62h-114v91h68l-31 60h139l31 -60h92v-91h-46l40 -77q37 -72 49.5 -119t12.5 -119z" unicode="ð"/>
<glyph glyph-name="ntilde" horiz-adv-x="573" unicode="ñ" d="M465 671q-58 -58 -113 -58q-38 0 -77 22q-31 18 -56 18q-30 0 -58 -28l-57 57q58 58 112 58q40 0 78 -22q30 -19 55 -19q29 0 58 29zM506 0h-130v315q0 49 -25.5 72t-60.5 23q-36 0 -61.5 -23t-25.5 -72v-315h-130v521h127v-48q51 54 130 54q77 0 123 -46q53 -53 53 -148 v-333z"/>
<glyph glyph-name="ograve" d="M323 604h-87l-114 170h137zM362 261q0 96 -30 126q-23 23 -61 23q-37 0 -60 -23q-30 -30 -30 -126q0 -97 30 -127q23 -23 60 -23q38 0 61 23q30 30 30 127zM492 261q0 -75 -12.5 -121.5t-46.5 -81.5q-60 -64 -162 -64q-101 0 -161 64q-34 35 -46.5 81.5t-12.5 121.5 q0 74 12.5 120.5t46.5 81.5q60 64 161 64q102 0 162 -64q34 -35 46.5 -81.5t12.5 -120.5z" unicode="ò"/>
<glyph glyph-name="oacute" d="M418 774l-114 -170h-87l64 170h137zM362 261q0 96 -30 126q-23 23 -61 23q-37 0 -60 -23q-30 -30 -30 -126q0 -97 30 -127q23 -23 60 -23q38 0 61 23q30 30 30 127zM492 261q0 -75 -12.5 -121.5t-46.5 -81.5q-60 -64 -162 -64q-101 0 -161 64q-34 35 -46.5 81.5 t-12.5 121.5q0 74 12.5 120.5t46.5 81.5q60 64 161 64q102 0 162 -64q34 -35 46.5 -81.5t12.5 -120.5z" unicode="ó"/>
<glyph glyph-name="ocircumflex" d="M456 604h-101l-83 91l-83 -91h-101l132 169h104zM362 261q0 96 -30 126q-23 23 -61 23q-37 0 -60 -23q-30 -30 -30 -126q0 -97 30 -127q23 -23 60 -23q38 0 61 23q30 30 30 127zM492 261q0 -75 -12.5 -121.5t-46.5 -81.5q-60 -64 -162 -64q-101 0 -161 64 q-34 35 -46.5 81.5t-12.5 121.5q0 74 12.5 120.5t46.5 81.5q60 64 161 64q102 0 162 -64q34 -35 46.5 -81.5t12.5 -120.5z" unicode="ô"/>
<glyph glyph-name="otilde" d="M447 671q-58 -58 -113 -58q-38 0 -77 22q-31 18 -56 18q-30 0 -58 -28l-57 57q58 58 112 58q40 0 78 -22q30 -19 55 -19q29 0 58 29zM362 261q0 96 -30 126q-23 23 -61 23q-37 0 -60 -23q-30 -30 -30 -126q0 -97 30 -127q23 -23 60 -23q38 0 61 23q30 30 30 127zM492 261 q0 -75 -12.5 -121.5t-46.5 -81.5q-60 -64 -162 -64q-101 0 -161 64q-34 35 -46.5 81.5t-12.5 121.5q0 74 12.5 120.5t46.5 81.5q60 64 161 64q102 0 162 -64q34 -35 46.5 -81.5t12.5 -120.5z" unicode="õ"/>
<glyph glyph-name="odieresis" d="M217 606h-111v125h111v-125zM438 606h-111v125h111v-125zM362 261q0 96 -30 126q-23 23 -61 23q-37 0 -60 -23q-30 -30 -30 -126q0 -97 30 -127q23 -23 60 -23q38 0 61 23q30 30 30 127zM492 261q0 -75 -12.5 -121.5t-46.5 -81.5q-60 -64 -162 -64q-101 0 -161 64 q-34 35 -46.5 81.5t-12.5 121.5q0 74 12.5 120.5t46.5 81.5q60 64 161 64q102 0 162 -64q34 -35 46.5 -81.5t12.5 -120.5z" unicode="ö"/>
<glyph glyph-name="divide" d="M337 18h-130v130h130v-130zM337 423h-130v130h130v-130zM497 225h-451v121h451v-121z" unicode="÷"/>
<glyph glyph-name="oslash" d="M320 397q-21 13 -49 13q-37 0 -60 -23q-30 -30 -30 -126q0 -58 7 -86zM362 261q0 53 -8 85l-131 -222q21 -13 48 -13q38 0 61 23q30 30 30 127zM492 261q0 -75 -12.5 -121.5t-46.5 -81.5q-60 -64 -162 -64q-58 0 -104 23l-36 -61h-79l59 101l-1 1q-34 34 -46.5 80.5 t-12.5 122.5q0 74 12.5 120.5t46.5 81.5q60 64 161 64q61 0 105 -22l35 60h80l-60 -101l2 -1q39 -19 49 -62t10 -123v-17z" unicode="ø"/>
<glyph glyph-name="ugrave" horiz-adv-x="573" unicode="ù" d="M338 604h-87l-114 170h137zM500 0h-127v48q-51 -54 -130 -54q-77 0 -123 46q-53 53 -53 148v333h130v-315q0 -49 25.5 -72t60.5 -23q36 0 61.5 23t25.5 72v315h130v-521z"/>
<glyph glyph-name="uacute" horiz-adv-x="573" unicode="ú" d="M429 774l-114 -170h-87l64 170h137zM500 0h-127v48q-51 -54 -130 -54q-77 0 -123 46q-53 53 -53 148v333h130v-315q0 -49 25.5 -72t60.5 -23q36 0 61.5 23t25.5 72v315h130v-521z"/>
<glyph glyph-name="ucircumflex" horiz-adv-x="573" unicode="û" d="M467 604h-101l-83 91l-83 -91h-101l132 169h104zM500 0h-127v48q-51 -54 -130 -54q-77 0 -123 46q-53 53 -53 148v333h130v-315q0 -49 25.5 -72t60.5 -23q36 0 61.5 23t25.5 72v315h130v-521z"/>
<glyph glyph-name="udieresis" horiz-adv-x="573" unicode="ü" d="M229 606h-111v125h111v-125zM450 606h-111v125h111v-125zM500 0h-127v48q-51 -54 -130 -54q-77 0 -123 46q-53 53 -53 148v333h130v-315q0 -49 25.5 -72t60.5 -23q36 0 61.5 23t25.5 72v315h130v-521z"/>
<glyph glyph-name="yacute" horiz-adv-x="494" unicode="ý" d="M390 774l-114 -170h-87l64 170h137zM490 521l-223 -605q-17 -45 -39 -67q-40 -40 -112 -40h-51v117h30q28 0 41.5 9.5t23.5 37.5l22 64l-178 484h137l108 -322l104 322h137z"/>
<glyph glyph-name="thorn" horiz-adv-x="562" unicode="þ" d="M379 261q0 74 -17 111.5t-71 37.5t-71 -37.5t-17 -111.5q0 -36 3 -60t11.5 -46t27 -33t46.5 -11t46.5 11t27 33t11.5 46t3 60zM509 261q0 -52 -2 -82.5t-14.5 -72t-36.5 -65.5q-47 -47 -127 -47q-79 0 -126 52v-237h-130v903h130v-237q47 52 126 52q80 0 127 -47 q24 -24 36.5 -65t14.5 -71.5t2 -82.5z"/>
<glyph glyph-name="OE" horiz-adv-x="966" unicode="Œ" d="M446 356q0 100 -7 138.5t-28 61.5q-33 38 -89 38q-57 0 -90 -38q-21 -23 -27.5 -61t-6.5 -139t6.5 -139t27.5 -61q33 -38 90 -38q56 0 89 38q21 23 28 61.5t7 138.5zM912 0h-466v44q-47 -50 -128 -50q-114 0 -189 75q-33 33 -49 80t-18.5 85t-2.5 112v10v10q0 74 2.5 112 t18.5 85t49 80q75 75 189 75q81 0 128 -50v44h465v-123h-327q0 -15 0.5 -85t0.5 -84h278v-122h-278q0 -14 -0.5 -87t-0.5 -88h328v-123z"/>
<glyph glyph-name="oe" horiz-adv-x="863" unicode="œ" d="M687 309q-1 33 -11 56q-24 54 -87 54q-64 0 -88 -54q-10 -23 -11 -56h197zM362 261q0 96 -30 126q-23 23 -61 23q-37 0 -60 -23q-30 -30 -30 -126q0 -97 30 -127q23 -23 60 -23q38 0 61 23q30 30 30 127zM816 220h-326q0 -52 30.5 -84t83.5 -32q41 0 66 11.5t51 37.5 l80 -77q-43 -43 -87 -62.5t-111 -19.5q-115 0 -174 66q-54 -66 -158 -66q-101 0 -161 64q-34 35 -46.5 81.5t-12.5 121.5q0 74 12.5 120.5t46.5 81.5q60 64 161 64q106 0 161 -69q57 69 157 69q106 0 166.5 -69.5t60.5 -179.5v-58z"/>
<glyph glyph-name="Scaron" horiz-adv-x="591" unicode="Š" d="M478 950l-132 -169h-104l-132 169h101l83 -90l83 90h101zM543 210q0 -101 -74.5 -158.5t-189.5 -57.5q-85 0 -147 21.5t-113 72.5l90 90q60 -60 172 -60q126 0 126 88q0 39 -22 60q-20 18 -63 25l-86 12q-91 13 -138 59q-51 51 -51 140q0 97 67 156.5t181 59.5 q144 0 230 -83l-88 -87q-51 49 -146 49q-53 0 -81.5 -25.5t-28.5 -64.5q0 -31 21 -51q24 -22 66 -28l84 -12q90 -13 136 -55q55 -52 55 -151z"/>
<glyph glyph-name="scaron" horiz-adv-x="501" unicode="š" d="M434 773l-132 -169h-104l-132 169h101l83 -90l83 90h101zM465 164q0 -83 -62 -126.5t-159 -43.5q-72 0 -124.5 15t-97.5 60l85 85q49 -49 139 -49q38 0 65 13.5t27 40.5q0 43 -55 48l-82 8q-152 15 -152 146q0 78 58.5 122t142.5 44q134 0 199 -61l-80 -81 q-39 35 -121 35q-37 0 -55.5 -14.5t-18.5 -35.5q0 -40 54 -45l82 -8q76 -7 115.5 -46.5t39.5 -106.5z"/>
<glyph glyph-name="Ydieresis" horiz-adv-x="572" unicode="Ÿ" d="M231 783h-111v125h111v-125zM452 783h-111v125h111v-125zM569 712l-214 -420v-292h-138v292l-214 420h151l133 -287l131 287h151z"/>
<glyph glyph-name="circumflex" horiz-adv-x="500" unicode="ˆ" d="M434 604h-101l-83 91l-83 -91h-101l132 169h104z"/>
<glyph glyph-name="tilde" horiz-adv-x="500" unicode="˜" d="M447 671q-58 -58 -113 -58q-38 0 -77 22q-31 18 -56 18q-30 0 -58 -28l-57 57q58 58 112 58q40 0 78 -22q30 -19 55 -19q29 0 58 29z"/>
<glyph glyph-name="Alpha" horiz-adv-x="638" unicode="Α" d="M409 243l-87 259l-90 -259h177zM633 0h-145l-42 126h-253l-43 -126h-145l259 712h109z"/>
<glyph glyph-name="Beta" horiz-adv-x="658" unicode="Β" d="M460 212q0 38 -24 62.5t-69 24.5h-145v-175h145q45 0 69 25t24 63zM450 506q0 37 -24 59.5t-68 22.5h-136v-164h136q44 0 68 22.5t24 59.5zM599 205q0 -97 -60 -151t-158 -54h-298v712h286q103 0 161.5 -54t58.5 -146q0 -54 -27.5 -92.5t-60.5 -54.5q98 -46 98 -160z"/>
<glyph glyph-name="Gamma" horiz-adv-x="568" unicode="Γ" d="M539 588h-317v-588h-139v712h456v-124z"/>
<glyph glyph-name="Delta" horiz-adv-x="634" unicode="Δ" d="M450 117l-130 385l-134 -385h264zM631 0h-628l260 712h108z"/>
<glyph glyph-name="Epsilon" horiz-adv-x="605" unicode="Ε" d="M552 0h-469v712h469v-124h-330v-167h281v-124h-281v-173h330v-124z"/>
<glyph glyph-name="Zeta" horiz-adv-x="548" unicode="Ζ" d="M508 0h-468v112l304 476h-291v124h455v-110l-305 -478h305v-124z"/>
<glyph glyph-name="Eta" horiz-adv-x="685" unicode="Η" d="M602 0h-139v298h-241v-298h-139v712h139v-291h241v291h139v-712z"/>
<glyph glyph-name="Theta" horiz-adv-x="644" unicode="Θ" d="M445 300h-247q1 -65 8.5 -93.5t25.5 -49.5q35 -39 90 -39q54 0 89 39q18 21 25.5 49.5t8.5 93.5zM445 419q-2 62 -9.5 89.5t-24.5 47.5q-33 38 -89 38q-57 0 -90 -38q-17 -20 -24.5 -47.5t-9.5 -89.5h247zM585 356v-19q0 -103 -12 -161t-58 -104q-78 -78 -193 -78 t-193 78q-46 46 -58 104t-12 161v19v19q0 103 12 161t58 104q78 78 193 78t193 -78q46 -46 58 -104t12 -161v-19z"/>
<glyph glyph-name="Iota" horiz-adv-x="305" unicode="Ι" d="M222 0h-139v712h139v-712z"/>
<glyph glyph-name="Kappa" horiz-adv-x="665" unicode="Κ" d="M659 0h-162l-183 324l-92 -110v-214h-139v712h139v-310l251 310h169l-236 -283z"/>
<glyph glyph-name="Lambda" horiz-adv-x="611" unicode="Λ" d="M603 0h-145l-149 498l-156 -498h-145l240 712h114z"/>
<glyph glyph-name="Mu" horiz-adv-x="811" unicode="Μ" d="M728 0h-139v415l-136 -270h-94l-137 270v-415h-139v712h137l186 -385l185 385h137v-712z"/>
<glyph glyph-name="Nu" horiz-adv-x="711" unicode="Ν" d="M628 0h-124l-282 437v-437h-139v712h124l282 -436v436h139v-712z"/>
<glyph glyph-name="Xi" horiz-adv-x="597" unicode="Ξ" d="M544 0h-491v124h176v173h-128v124h128v167h-176v124h491v-124h-176v-167h128v-124h-128v-173h176v-124z"/>
<glyph glyph-name="Omicron" horiz-adv-x="644" unicode="Ο" d="M446 356q0 100 -7 138.5t-28 61.5q-33 38 -89 38q-57 0 -90 -38q-21 -23 -27.5 -61t-6.5 -139t6.5 -139t27.5 -61q33 -38 90 -38q56 0 89 38q21 23 28 61.5t7 138.5zM585 356v-10q0 -74 -2.5 -111.5t-19 -83.5t-49.5 -79q-78 -78 -192 -78q-115 0 -193 78q-46 46 -58 104 t-12 161v19v19q0 103 12 161t58 104q78 78 193 78q114 0 192 -78q33 -33 49.5 -79t19 -83.5t2.5 -111.5v-10z"/>
<glyph glyph-name="Pi" horiz-adv-x="682" unicode="Π" d="M599 0h-139v588h-238v-588h-139v712h516v-712z"/>
<glyph glyph-name="Rho" horiz-adv-x="628" unicode="Ρ" d="M455 490q0 44 -28 71t-75 27h-130v-195h130q47 0 75 26.5t28 70.5zM594 490q0 -94 -64 -158t-171 -64h-137v-268h-139v712h276q107 0 171 -64t64 -158z"/>
<glyph glyph-name="Sigma" horiz-adv-x="547" unicode="Σ" d="M511 588h-287l131 -212l-152 -252h305v-124h-468v111l161 263l-145 232v106h455v-124z"/>
<glyph glyph-name="Tau" horiz-adv-x="571" unicode="Τ" d="M541 588h-186v-588h-139v588h-186v124h511v-124z"/>
<glyph glyph-name="Upsilon" horiz-adv-x="572" unicode="Υ" d="M569 712l-214 -420v-292h-138v292l-214 420h151l133 -287l131 287h151z"/>
<glyph glyph-name="Phi" horiz-adv-x="777" unicode="Φ" d="M319 181v356q-64 0 -99 -41q-33 -39 -33 -137q0 -99 33 -138q34 -40 99 -40zM590 359q0 98 -33 137q-35 41 -99 41v-356q65 0 99 40q33 39 33 138zM729 359q0 -153 -71 -224q-78 -78 -200 -78v-57h-139v57q-122 0 -200 78q-71 71 -71 224t71 224q78 78 200 78v51h139v-51 q122 0 200 -78q71 -71 71 -224z"/>
<glyph glyph-name="Chi" horiz-adv-x="603" unicode="Χ" d="M598 0h-159l-138 248l-137 -248h-159l221 365l-207 347h158l124 -230l125 230h157l-207 -347z"/>
<glyph glyph-name="Psi" horiz-adv-x="745" unicode="Ψ" d="M695 363q0 -99 -65 -164q-77 -77 -188 -78v-121h-139v121q-111 1 -188 78q-65 65 -65 164v349h138v-349q0 -48 30 -80q35 -36 85 -38v467h139v-467q50 2 85 38q30 32 30 80v349h138v-349z"/>
<glyph glyph-name="alpha" horiz-adv-x="561" unicode="α" d="M358 261q0 36 -3 59.5t-11.5 45.5t-27 33t-46.5 11q-54 0 -71.5 -38t-17.5 -111q0 -35 3 -59.5t12 -46.5t27.5 -33t46.5 -11t46.5 11t27 33.5t11.5 46t3 59.5zM488 0h-127v49q-49 -55 -129 -55q-81 0 -128 47q-24 24 -36.5 65.5t-14.5 72t-2 82.5t2 82.5t14.5 71.5 t36.5 65q47 47 127 47q81 0 129 -54v48h128v-521z"/>
<glyph glyph-name="beta" horiz-adv-x="579" unicode="β" d="M402 228q0 69 -44 89q-29 13 -72 13h-51v103h61q87 0 87 88q0 36 -21 59q-23 25 -65 25q-93 0 -93 -99v-295q0 -45 26 -73t67 -28q44 0 69 21q36 31 36 97zM531 218q0 -110 -58 -169q-55 -55 -140 -55q-83 0 -134 55v-49h-126v520q0 92 61.5 143.5t159.5 51.5 q95 0 154 -47.5t59 -132.5q0 -65 -29 -103q-23 -29 -52 -41q40 -14 63 -40q42 -48 42 -133z"/>
<glyph glyph-name="gamma" horiz-adv-x="494" unicode="γ" d="M490 521l-179 -506v-206h-129v206l-178 506h138l106 -340l104 340h138z"/>
<glyph glyph-name="delta" horiz-adv-x="537" unicode="δ" d="M354 256q0 97 -33 126q-19 16 -50 16q-29 0 -51 -15q-39 -28 -39 -127t36 -128q19 -16 51 -16q33 0 51 15q35 27 35 129zM486 265q0 -137 -54 -202q-57 -69 -166 -69q-104 0 -160 67q-55 65 -55 195q0 138 65 199q45 43 106 43q23 0 35 -4l-147 121v97h344v-101h-180 l110 -92q102 -85 102 -254z"/>
<glyph glyph-name="epsilon" horiz-adv-x="510" unicode="ε" d="M490 85q-55 -52 -105.5 -71t-126.5 -19q-88 0 -150.5 39t-62.5 117q0 83 77 119q-25 12 -44 39.5t-19 67.5q0 68 60 109t145 41q61 0 104 -15t96 -57l-73 -88q-35 28 -61 40t-60 12q-36 0 -59 -15.5t-23 -40.5q0 -21 18 -35t47 -14h98v-99h-99q-39 0 -57 -15.5t-18 -35.5 q0 -26 26.5 -42.5t65.5 -16.5q71 0 137 58z"/>
<glyph glyph-name="zeta" horiz-adv-x="500" unicode="ζ" d="M472 -19q0 -15 -3 -30.5t-14 -37t-29 -38t-52.5 -28.5t-80.5 -12v101q57 0 57 41q0 26 -48 26h-15h-30q-214 0 -214 158q0 142 191 243h-158v117h384v-117h-19q-42 -18 -82.5 -40.5t-83 -52.5t-68.5 -65.5t-26 -70.5q0 -33 23.5 -46t74.5 -13h29q164 0 164 -135z"/>
<glyph glyph-name="eta" horiz-adv-x="573" unicode="η" d="M506 0h-130v315q0 49 -25.5 72t-60.5 23q-36 0 -61.5 -23t-25.5 -72v-315h-130v521h127v-48q51 54 130 54q77 0 123 -46q53 -53 53 -148v-333z"/>
<glyph glyph-name="theta" horiz-adv-x="576" unicode="θ" d="M385 316h-193q0 -140 33 -176q27 -29 64 -29q38 0 64 29q32 36 32 176zM384 428q-3 112 -31 144q-26 29 -64 29t-64 -29q-30 -33 -33 -144h192zM516 355v-32q0 -60 -3 -97.5t-18.5 -86t-45.5 -80.5q-60 -66 -160 -66t-160 66q-31 35 -47.5 86.5t-19 90.5t-2.5 103v17v17 q0 64 2.5 102.5t19 90t47.5 86.5q60 66 160 66t160 -66q30 -32 45.5 -80.5t18.5 -86.5t3 -98v-32z"/>
<glyph glyph-name="iota" horiz-adv-x="325" unicode="ι" d="M294 0h-74q-75 0 -113.5 44t-38.5 105v372h130v-364q0 -47 46 -47h50v-110z"/>
<glyph glyph-name="kappa" horiz-adv-x="560" unicode="κ" d="M548 0h-162l-128 217l-55 -62v-155h-131v521h131v-213l173 213h157l-186 -210z"/>
<glyph glyph-name="lambda" horiz-adv-x="514" unicode="λ" d="M522 0h-54q-62 0 -96.5 32.5t-53.5 94.5l-60 193l-113 -320h-137l188 486l-21 74q-12 42 -57 42h-32v115h48q73 0 113 -41q23 -23 38 -66l152 -458q13 -42 48 -42h37v-110z"/>
<glyph glyph-name="mu" horiz-adv-x="576" unicode="μ" d="M503 0h-127v48q-51 -54 -130 -54q-27 0 -46 14v-199h-130v712h130v-315q0 -49 25.5 -72t60.5 -23q36 0 61.5 23t25.5 72v315h130v-521z"/>
<glyph glyph-name="nu" horiz-adv-x="494" unicode="ν" d="M490 521l-192 -521h-102l-192 521h138l106 -321l104 321h138z"/>
<glyph glyph-name="xi" horiz-adv-x="509" unicode="ξ" d="M497 628l-72 -84q-61 67 -134 67q-44 0 -69.5 -25.5t-25.5 -69.5q0 -41 25 -63.5t68 -22.5h120v-109h-110q-15 0 -31.5 -3.5t-38.5 -13.5t-36.5 -34t-14.5 -58q0 -48 28.5 -72t74.5 -24h44q155 0 155 -135q0 -15 -3 -30.5t-14 -37t-29 -38t-52.5 -28.5t-80.5 -12v101 q57 0 57 41q0 16 -12.5 21t-40.5 5h-44q-102 0 -160 50t-58 143q0 68 33.5 115.5t88.5 67.5q-43 14 -69 52t-26 88q0 92 61.5 146.5t155.5 54.5q127 0 210 -92z"/>
<glyph glyph-name="omicron" d="M362 261q0 96 -30 126q-23 23 -61 23q-37 0 -60 -23q-30 -30 -30 -126q0 -97 30 -127q23 -23 60 -23q38 0 61 23q30 30 30 127zM492 261q0 -75 -12.5 -121.5t-46.5 -81.5q-60 -64 -162 -64q-101 0 -161 64q-34 35 -46.5 81.5t-12.5 121.5q0 74 12.5 120.5t46.5 81.5 q60 64 161 64q102 0 162 -64q34 -35 46.5 -81.5t12.5 -120.5z" unicode="ο"/>
<glyph glyph-name="pi" horiz-adv-x="592" unicode="π" d="M515 0h-129v399h-180v-399h-130v521h439v-521z"/>
<glyph glyph-name="rho" horiz-adv-x="536" unicode="ρ" d="M355 260q0 83 -19 115q-22 34 -70 34q-44 0 -65 -33q-20 -31 -20 -115q0 -80 15 -108q23 -40 71 -40q52 0 70 39t18 108zM485 259q0 -139 -60 -204q-55 -61 -142 -61q-50 0 -102 46v-231h-130v451q0 80 12 121.5t37 70.5q62 75 164 75q103 0 163 -64q35 -37 46.5 -82 t11.5 -122z"/>
<glyph glyph-name="sigma1" horiz-adv-x="480" unicode="ς" d="M452 457l-89 -88q-38 41 -82 41q-47 0 -75 -34t-28 -115q0 -127 116 -139q146 -16 146 -141q0 -15 -3 -30.5t-14 -37t-29 -38t-52.5 -28.5t-80.5 -12v101q57 0 57 41q0 29 -64 35q-93 7 -150 68t-57 181q0 75 21.5 130t57.5 83t74 40.5t81 12.5q104 0 171 -70z"/>
<glyph glyph-name="sigma" horiz-adv-x="567" unicode="σ" d="M362 260q0 96 -27 128q-19 24 -65 24q-41 0 -63 -27q-26 -31 -26 -124q0 -91 25 -121q23 -28 64 -28q43 0 65 27q27 32 27 121zM523 408h-84q23 -15 38 -57t15 -90q0 -79 -13 -122.5t-45 -78.5q-62 -66 -164 -66t-163 67q-31 34 -43.5 77.5t-12.5 122.5t12 121.5t44 77.5 q57 61 162 61h254v-113z"/>
<glyph glyph-name="tau" horiz-adv-x="405" unicode="τ" d="M383 404h-115v-404h-131v404h-115v117h361v-117z"/>
<glyph glyph-name="upsilon" horiz-adv-x="550" unicode="υ" d="M492 264q0 -74 -11.5 -121.5t-47.5 -84.5q-62 -64 -158 -64t-158 64q-36 37 -47.5 84.5t-11.5 121.5v257h131v-282q0 -78 29 -104q25 -24 57 -24t57 24q30 27 30 104v282h130v-257z"/>
<glyph glyph-name="phi" horiz-adv-x="699" unicode="φ" d="M517 265q0 73 -20 108.5t-81 35.5v-301q62 2 81.5 40.5t19.5 116.5zM648 263q0 -265 -232 -269v-185h-130v185q-120 5 -177.5 78.5t-57.5 188.5q0 184 158 262l46 -96q-73 -46 -73 -170q0 -142 104 -149v413h115q131 0 189 -62t58 -196z"/>
<glyph glyph-name="chi" horiz-adv-x="527" unicode="χ" d="M515 0h-156l-96 156l-95 -156h-156l180 266l-173 255h156l88 -149l89 149h156l-173 -255z"/>
<glyph glyph-name="psi" horiz-adv-x="700" unicode="ψ" d="M642 261q0 -73 -12.5 -120.5t-43.5 -81.5q-55 -62 -170 -62v-188h-131v188q-115 0 -170 62q-57 62 -57 202v260h131v-284q0 -126 96 -126v410h131v-410q95 0 95 126v284h131v-260z"/>
<glyph glyph-name="afii10023" horiz-adv-x="605" unicode="Ё" d="M255 783h-111v125h111v-125zM476 783h-111v125h111v-125zM552 0h-469v712h469v-124h-330v-167h281v-124h-281v-173h330v-124z"/>
<glyph glyph-name="afii10051" horiz-adv-x="748" unicode="Ђ" d="M323 328v-328h-138v588h-156v124h511v-124h-217v-140h130q104 0 167.5 -60t63.5 -157v-13q0 -98 -64 -158t-167 -60h-42v119h31q46 0 74.5 27.5t28.5 71.5v13q0 44 -28.5 70.5t-74.5 26.5h-119z"/>
<glyph glyph-name="afii10052" horiz-adv-x="561" unicode="Ѓ" d="M440 951l-114 -170h-87l64 170h137zM534 588h-309v-588h-139v712h448v-124z"/>
<glyph glyph-name="afii10053" horiz-adv-x="619" unicode="Є" d="M444 216h138q-18 -107 -88.5 -164.5t-172.5 -57.5q-114 0 -192 78q-46 46 -58 104t-12 161v19v19q0 103 12 161t58 104q78 78 192 78q102 0 172.5 -57.5t88.5 -164.5h-138q-27 101 -122 101q-57 0 -91 -39q-18 -20 -25.5 -48.5t-9.5 -91.5h221v-121h-222q2 -64 10 -93.5 t26 -49.5q34 -39 91 -39q49 0 80 27.5t42 73.5z"/>
<glyph glyph-name="afii10054" horiz-adv-x="591" unicode="Ѕ" d="M543 210q0 -101 -74.5 -158.5t-189.5 -57.5q-85 0 -147 21.5t-113 72.5l90 90q60 -60 172 -60q126 0 126 88q0 39 -22 60q-20 18 -63 25l-86 12q-91 13 -138 59q-51 51 -51 140q0 97 67 156.5t181 59.5q144 0 230 -83l-88 -87q-51 49 -146 49q-53 0 -81.5 -25.5 t-28.5 -64.5q0 -31 21 -51q24 -22 66 -28l84 -12q90 -13 136 -55q55 -52 55 -151z"/>
<glyph glyph-name="afii10055" horiz-adv-x="305" unicode="І" d="M222 0h-139v712h139v-712z"/>
<glyph glyph-name="afii10056" horiz-adv-x="305" unicode="Ї" d="M97 783h-111v125h111v-125zM318 783h-111v125h111v-125zM222 0h-139v712h139v-712z"/>
<glyph glyph-name="afii10057" horiz-adv-x="511" unicode="Ј" d="M437 234q0 -113 -73 -176.5t-178 -63.5q-58 0 -101 17t-82 56l92 91q40 -40 91 -40q52 0 82 31t30 91v472h139v-478z"/>
<glyph glyph-name="afii10058" horiz-adv-x="1008" unicode="Љ" d="M159 712h443v-268h141q104 0 167.5 -62t63.5 -160t-64 -160t-167 -62h-280v588h-170v-207q0 -147 -25.5 -231.5t-72 -117t-123.5 -32.5h-55v124h20q29 0 49.5 10.5t38 38t26 81.5t8.5 135v323zM732 319h-130v-195h130q47 0 75 27t28 71t-28 70.5t-75 26.5z"/>
<glyph glyph-name="afii10059" horiz-adv-x="1008" unicode="Њ" d="M732 319h-130v-195h130q47 0 75 27t28 71t-28 70.5t-75 26.5zM974 222q0 -98 -64 -160t-167 -62h-280v320h-241v-320h-139v712h139v-268h241v268h139v-268h141q104 0 167.5 -62t63.5 -160z"/>
<glyph glyph-name="afii10060" horiz-adv-x="748" unicode="Ћ" d="M684 0h-139v231q0 44 -28.5 70.5t-74.5 26.5h-119v-328h-138v588h-156v124h511v-124h-217v-140h130q104 0 167.5 -60t63.5 -157v-231z"/>
<glyph glyph-name="afii10061" horiz-adv-x="640" unicode="Ќ" d="M487 951l-114 -170h-87l64 170h137zM224 0h-139v712h139v-338l230 338h166l-239 -334l263 -378h-170l-250 372v-372z"/>
<glyph glyph-name="afii10062" horiz-adv-x="581" unicode="Ў" d="M577 712l-252 -592q-51 -120 -159 -120h-85v124h56q54 0 74 45l21 49l-228 494h145l149 -343l135 343h144zM460 893q-3 -75 -49 -109t-113 -34t-113 34t-49 109h98q4 -62 64 -62t64 62h98z"/>
<glyph glyph-name="afii10145" horiz-adv-x="686" unicode="Џ" d="M602 0h-192v-158h-134v158h-193v712h139v-588h241v588h139v-712z"/>
<glyph glyph-name="afii10017" horiz-adv-x="638" unicode="А" d="M409 243l-87 259l-90 -259h177zM633 0h-145l-42 126h-253l-43 -126h-145l259 712h109z"/>
<glyph glyph-name="afii10018" horiz-adv-x="654" unicode="Б" d="M460 222q0 44 -26.5 71t-72.5 27h-139v-196h139q46 0 72.5 26.5t26.5 71.5zM599 222q0 -99 -62.5 -160.5t-168.5 -61.5h-285v712h471v-124h-332v-144h146q106 0 168.5 -61.5t62.5 -160.5z"/>
<glyph glyph-name="afii10019" horiz-adv-x="658" unicode="В" d="M222 124h145q43 0 68 24t25 64t-25 63.5t-68 23.5h-145v-175zM222 424h136q43 0 67.5 22t24.5 60t-24.5 60t-67.5 22h-136v-164zM501 365q34 -18 54 -38q44 -47 44 -123q0 -94 -59 -149t-159 -55h-298v712h286q101 0 160.5 -53t59.5 -143q0 -102 -88 -151z"/>
<glyph glyph-name="afii10020" horiz-adv-x="561" unicode="Г" d="M534 588h-309v-588h-139v712h448v-124z"/>
<glyph glyph-name="afii10021" horiz-adv-x="705" unicode="Д" d="M456 124v464h-157v-103q0 -234 -63 -361h220zM677 -158h-134v158h-395v-158h-134v282h67q85 131 85 406v182h429v-588h82v-282z"/>
<glyph glyph-name="afii10022" horiz-adv-x="605" unicode="Е" d="M552 0h-469v712h469v-124h-330v-167h281v-124h-281v-173h330v-124z"/>
<glyph glyph-name="afii10024" horiz-adv-x="939" unicode="Ж" d="M162 0h-168l257 378l-233 334h164l218 -338v338h139v-338l218 338h164l-233 -334l257 -378h-168l-238 372v-372h-139v372z"/>
<glyph glyph-name="afii10025" horiz-adv-x="606" unicode="З" d="M293 -6q-100 0 -170.5 57.5t-88.5 164.5h138q27 -101 122 -101q52 0 83 26.5t31 69.5q0 46 -27.5 71t-80.5 25h-92v114h93q46 0 71.5 23.5t25.5 66.5q0 41 -27.5 64.5t-75.5 23.5q-49 0 -79.5 -28.5t-41.5 -74.5h-139q18 107 88.5 164.5t172.5 57.5q106 0 173.5 -54 t67.5 -143q0 -103 -93 -153q103 -46 103 -162q0 -96 -71 -154t-183 -58z"/>
<glyph glyph-name="afii10026" horiz-adv-x="706" unicode="И" d="M623 0h-139v457l-277 -457h-124v712h139v-456l277 456h124v-712z"/>
<glyph glyph-name="afii10027" horiz-adv-x="706" unicode="Й" d="M623 0h-139v457l-277 -457h-124v712h139v-456l277 456h124v-712zM516 893q-3 -75 -49 -109t-113 -34t-113 34t-49 109h98q4 -62 64 -62t64 62h98z"/>
<glyph glyph-name="afii10028" horiz-adv-x="640" unicode="К" d="M224 0h-139v712h139v-338l230 338h166l-239 -334l263 -378h-170l-250 372v-372z"/>
<glyph glyph-name="afii10029" horiz-adv-x="686" unicode="Л" d="M602 0h-139v588h-170v-207q0 -147 -25.5 -231.5t-72 -117t-123.5 -32.5h-55v124h20q29 0 49.5 10.5t38 38t26 81.5t8.5 135v323h443v-712z"/>
<glyph glyph-name="afii10030" horiz-adv-x="811" unicode="М" d="M728 0h-139v415l-136 -270h-94l-137 270v-415h-139v712h137l186 -385l185 385h137v-712z"/>
<glyph glyph-name="afii10031" horiz-adv-x="685" unicode="Н" d="M602 0h-139v298h-241v-298h-139v712h139v-291h241v291h139v-712z"/>
<glyph glyph-name="afii10032" horiz-adv-x="644" unicode="О" d="M446 369q0 88 -7 126t-28 61q-33 38 -89 38q-57 0 -90 -38q-22 -24 -28 -67.5t-6 -122.5v-36q0 -47 1.5 -73t9.5 -56t23 -45q38 -38 90 -38q56 0 89 38q22 25 28.5 65t6.5 148zM585 406v-76q0 -61 -2.5 -95t-19 -81.5t-49.5 -81.5q-75 -78 -192 -78t-193 78 q-32 33 -48.5 83t-19 84t-2.5 87v59q0 107 14.5 160t55.5 95q76 78 193 78q116 0 192 -78q71 -72 71 -234z"/>
<glyph glyph-name="afii10033" horiz-adv-x="685" unicode="П" d="M602 0h-139v588h-241v-588h-139v712h519v-712z"/>
<glyph glyph-name="afii10034" horiz-adv-x="628" unicode="Р" d="M222 393h130q47 0 75 26.5t28 70.5t-28 71t-75 27h-130v-195zM83 712h276q103 0 169 -62.5t66 -159.5q0 -98 -66 -160t-169 -62h-137v-268h-139v712z"/>
<glyph glyph-name="afii10035" horiz-adv-x="620" unicode="С" d="M583 219q-18 -109 -89 -167t-173 -58q-114 0 -192 78q-46 46 -58 104t-12 161v19v19q0 103 12 161t58 104q78 78 192 78q103 0 173.5 -58t88.5 -167h-141q-25 101 -120 101q-57 0 -89 -37q-21 -23 -28 -62t-7 -139t7 -139t28 -62q32 -37 89 -37q95 0 120 101h141z"/>
<glyph glyph-name="afii10036" horiz-adv-x="571" unicode="Т" d="M541 588h-186v-588h-139v588h-186v124h511v-124z"/>
<glyph glyph-name="afii10037" horiz-adv-x="581" unicode="У" d="M577 712l-252 -592q-51 -120 -159 -120h-85v124h56q54 0 74 45l21 49l-228 494h145l149 -343l135 343h144z"/>
<glyph glyph-name="afii10038" horiz-adv-x="814" unicode="Ф" d="M476 -5h-138v85q-152 8 -222.5 84.5t-70.5 218.5q0 274 293 292v71h138v-71q293 -18 293 -292q0 -143 -70 -219t-223 -84v-85zM340 196v360q-85 -4 -120.5 -46.5t-35.5 -132.5q0 -87 36.5 -131.5t119.5 -49.5zM475 556v-360q83 5 119.5 49.5t36.5 131.5q0 90 -35.5 132.5 t-120.5 46.5z"/>
<glyph glyph-name="afii10039" horiz-adv-x="603" unicode="Х" d="M598 0h-159l-138 248l-137 -248h-159l221 365l-207 347h158l124 -230l125 230h157l-207 -347z"/>
<glyph glyph-name="afii10040" horiz-adv-x="712" unicode="Ц" d="M685 -158h-134v158h-468v712h139v-588h241v588h139v-588h83v-282z"/>
<glyph glyph-name="afii10041" horiz-adv-x="649" unicode="Ч" d="M565 0h-138v267q-117 -19 -181 -19q-75 0 -128.5 45t-53.5 128v291h139v-255q0 -85 89 -85q63 0 135 15v325h138v-712z"/>
<glyph glyph-name="afii10042" horiz-adv-x="988" unicode="Ш" d="M905 0h-822v712h139v-588h203v588h139v-588h202v588h139v-712z"/>
<glyph glyph-name="afii10043" horiz-adv-x="1014" unicode="Щ" d="M987 -158h-134v158h-770v712h139v-588h203v588h139v-588h202v588h139v-588h82v-282z"/>
<glyph glyph-name="afii10044" horiz-adv-x="727" unicode="Ъ" d="M554 222q0 44 -28.5 71t-74.5 27h-130v-196h130q47 0 75 27t28 71zM693 222q0 -98 -64.5 -160t-166.5 -62h-280v588h-152v124h291v-268h141q103 0 167 -62t64 -160z"/>
<glyph glyph-name="afii10045" horiz-adv-x="893" unicode="Ы" d="M455 222q0 44 -28 71t-75 27h-130v-196h130q47 0 75 27t28 71zM594 222q0 -98 -64 -160t-167 -62h-280v712h139v-268h141q104 0 167.5 -62t63.5 -160zM810 0h-139v712h139v-712z"/>
<glyph glyph-name="afii10046" horiz-adv-x="628" unicode="Ь" d="M455 222q0 44 -28 71t-75 27h-130v-196h130q47 0 75 27t28 71zM594 222q0 -98 -64 -160t-167 -62h-280v712h139v-268h141q104 0 167.5 -62t63.5 -160z"/>
<glyph glyph-name="afii10047" horiz-adv-x="619" unicode="Э" d="M37 216h138q11 -46 42 -73.5t80 -27.5q57 0 91 39q18 20 26 49.5t10 93.5h-222v121h221q-2 63 -9.5 91.5t-25.5 48.5q-34 39 -91 39q-95 0 -122 -101h-138q18 107 88.5 164.5t172.5 57.5q114 0 192 -78q46 -46 58 -104t12 -161v-19v-19q0 -103 -12 -161t-58 -104 q-78 -78 -192 -78q-102 0 -172.5 57.5t-88.5 164.5z"/>
<glyph glyph-name="afii10048" horiz-adv-x="914" unicode="Ю" d="M716 340v42q0 135 -34 174q-33 38 -90 38t-89 -38q-35 -40 -35 -179v-44q0 -78 7.5 -116t27.5 -60q34 -39 89 -39q56 0 90 39q21 23 27.5 62.5t6.5 120.5zM592 718q116 0 193 -78q70 -71 70 -221v-73q0 -74 -2.5 -111t-18.5 -83t-49 -80q-75 -78 -192 -78q-118 0 -193 78 q-41 42 -55 94t-16 132h-107v-298h-139v712h139v-290h108q3 82 17.5 130.5t52.5 87.5q74 78 192 78z"/>
<glyph glyph-name="afii10049" horiz-adv-x="650" unicode="Я" d="M428 391v199h-130q-47 0 -75 -27t-28 -71t28.5 -72.5t74.5 -28.5h130zM314 268l-117 -268h-165l147 296q-57 26 -89.5 76.5t-32.5 117.5q0 101 65 161.5t169 60.5h276v-712h-139v268h-114z"/>
<glyph glyph-name="afii10065" horiz-adv-x="534" unicode="а" d="M337 220h-103q-35 0 -54 -15.5t-19 -43.5q0 -60 82 -60q50 0 72 21t22 70v28zM467 0h-127v45q-29 -28 -54 -38q-30 -12 -74 -12q-83 0 -129.5 42.5t-46.5 119.5q0 70 47.5 111t130.5 41h123v26q0 43 -23 62.5t-76 19.5q-35 0 -55 -9t-43 -34l-83 81q38 38 70 53 q44 19 115 19q225 0 225 -184v-343z"/>
<glyph glyph-name="afii10066" horiz-adv-x="548" unicode="б" d="M282 -6q-129 0 -181 81q-42 66 -42 229q0 124 7.5 190.5t24 102.5t51.5 63q45 35 114.5 46t198.5 12v-112q-15 -1 -51.5 -2.5t-59 -3t-52 -7.5t-50.5 -17q-36 -19 -51 -46t-15 -74q15 26 51.5 43t78.5 17q81 0 128 -42q66 -62 66 -211q0 -77 -15 -125t-49 -84 q-57 -60 -154 -60zM280 111q41 0 63 26q27 33 27 123q0 86 -26 118q-21 28 -64 28t-65 -27q-26 -34 -26 -118q0 -93 29 -125q21 -25 62 -25z"/>
<glyph glyph-name="afii10067" horiz-adv-x="550" unicode="в" d="M369 157q0 28 -17 44t-48 16h-103v-121h103q30 0 47.5 16.5t17.5 44.5zM298 425h-97v-111h97q63 0 63 56q0 55 -63 55zM498 150q0 -69 -43 -109.5t-117 -40.5h-266v521h257q73 0 117 -39t44 -104q0 -72 -66 -110q74 -38 74 -118z"/>
<glyph glyph-name="afii10068" horiz-adv-x="434" unicode="г" d="M421 406h-215v-406h-130v521h345v-115z"/>
<glyph glyph-name="afii10069" horiz-adv-x="580" unicode="д" d="M361 115v291h-119v-68q0 -141 -40 -223h159zM557 -128h-123v128h-298v-128h-123v243h53q51 91 51 247v159h374v-406h66v-243z"/>
<glyph glyph-name="afii10070" horiz-adv-x="548" unicode="е" d="M373 309q-3 53 -28.5 81.5t-70.5 28.5t-71 -28.5t-28 -81.5h198zM501 220h-326q6 -116 119 -116q33 0 60 11q24 10 53 38l79 -77q-47 -45 -90 -63q-47 -19 -107 -19q-242 0 -242 268q0 122 61 193.5t166 71.5q103 0 165 -68t62 -181v-58z"/>
<glyph glyph-name="afii10072" horiz-adv-x="761" unicode="ж" d="M147 0h-153l183 278l-171 243h149l160 -247v247h131v-247l161 247h149l-171 -243l182 -278h-152l-169 272v-272h-131v272z"/>
<glyph glyph-name="afii10073" horiz-adv-x="496" unicode="з" d="M444 154q0 -71 -58 -115.5t-141 -44.5q-146 0 -228 74l75 82q52 -46 132 -46q37 0 64 15.5t27 43.5q0 56 -75 56h-79v93h77q32 0 51 15.5t19 41.5q0 53 -88 53q-62 0 -113 -36l-72 80q77 61 211 61q79 0 134.5 -37.5t55.5 -103.5q0 -37 -19.5 -67t-51.5 -45 q36 -15 57.5 -47t21.5 -73z"/>
<glyph glyph-name="afii10074" horiz-adv-x="589" unicode="и" d="M517 0h-131v318l-183 -318h-131v521h131v-310l183 310h131v-521z"/>
<glyph glyph-name="afii10075" horiz-adv-x="589" unicode="й" d="M517 0h-131v318l-183 -318h-131v521h131v-310l183 310h131v-521zM456 722q-2 -75 -48.5 -109t-113.5 -34t-113 34t-49 109h98q4 -62 64 -62t64 62h98z"/>
<glyph glyph-name="afii10076" horiz-adv-x="533" unicode="к" d="M204 0h-131v521h131v-247l171 247h152l-184 -243l196 -278h-156l-179 272v-272z"/>
<glyph glyph-name="afii10077" horiz-adv-x="571" unicode="л" d="M498 0h-130v406h-125v-125q0 -159 -41 -220t-126 -61h-62v115h16q21 0 33 4.5t26.5 22t21 59.5t6.5 109v211h381v-521z"/>
<glyph glyph-name="afii10078" horiz-adv-x="677" unicode="м" d="M604 0h-130v301l-98 -193h-74l-99 193v-301h-131v521h129l138 -274l137 274h128v-521z"/>
<glyph glyph-name="afii10079" horiz-adv-x="573" unicode="н" d="M501 0h-131v209h-167v-209h-131v521h131v-197h167v197h131v-521z"/>
<glyph glyph-name="afii10080" d="M362 261q0 31 -2.5 52.5t-10.5 46t-27.5 37.5t-50.5 13q-26 0 -43.5 -10.5t-26.5 -24.5t-14 -38.5t-5.5 -40.5t-0.5 -43q0 -75 21.5 -108.5t68.5 -33.5q25 0 43 9.5t27 23t14 36t6 39.5t1 42zM492 263q0 -80 -13 -125.5t-46 -79.5q-61 -64 -162 -64q-100 0 -161 64 q-33 34 -46 79.5t-13 123.5q0 77 13.5 122t45.5 80q61 64 161 64q101 0 162 -64q32 -34 45.5 -79t13.5 -121z" unicode="о"/>
<glyph glyph-name="afii10081" horiz-adv-x="573" unicode="п" d="M501 0h-131v406h-167v-406h-131v521h429v-521z"/>
<glyph glyph-name="afii10082" horiz-adv-x="560" unicode="р" d="M379 262q0 82 -19.5 115t-68.5 33q-25 0 -42 -9.5t-26 -22.5t-13.5 -36t-5.5 -38.5t-1 -41.5v-9q0 -76 20.5 -109t67.5 -33q49 0 68.5 34t19.5 117zM199 472q31 31 58.5 43t69.5 12q82 0 129 -47q33 -33 44 -88q9 -49 9 -133q0 -91 -12 -140t-41 -78q-47 -47 -129 -47 q-72 0 -124 52v-237h-130v712h126v-49z"/>
<glyph glyph-name="afii10083" horiz-adv-x="480" unicode="с" d="M452 65q-38 -36 -74 -52q-42 -19 -97 -19q-112 0 -173 70.5t-61 200.5q0 123 62 192.5t172 69.5q55 0 97 -18q36 -16 74 -52l-88 -88q-40 41 -84 41q-103 0 -103 -149q0 -150 103 -150q25 0 42.5 8.5t41.5 32.5z"/>
<glyph glyph-name="afii10084" horiz-adv-x="456" unicode="т" d="M445 406h-150v-406h-131v406h-153v115h434v-115z"/>
<glyph glyph-name="afii10085" horiz-adv-x="494" unicode="у" d="M490 521l-223 -605q-21 -56 -56.5 -81.5t-94.5 -25.5h-51v117h30q29 0 42 9.5t23 37.5l22 64l-178 484h137l108 -322l104 322h137z"/>
<glyph glyph-name="afii10086" horiz-adv-x="726" unicode="ф" d="M300 111v299q-124 -1 -124 -147q0 -149 124 -152zM550 263q0 146 -124 147v-299q124 3 124 152zM681 264q0 -128 -67 -195t-186 -74v-186h-130v186q-119 7 -186 74t-67 195q0 247 253 262v186h130v-186q253 -15 253 -262z"/>
<glyph glyph-name="afii10087" horiz-adv-x="527" unicode="х" d="M515 0h-156l-96 156l-95 -156h-156l180 266l-173 255h156l88 -149l89 149h156l-173 -255z"/>
<glyph glyph-name="afii10088" horiz-adv-x="594" unicode="ц" d="M571 -128h-124v128h-375v521h131v-406h167v406h131v-406h70v-243z"/>
<glyph glyph-name="afii10089" horiz-adv-x="548" unicode="ч" d="M476 0h-130v183q-79 -14 -142 -14q-64 0 -105 38t-41 104v210h130v-174q0 -63 64 -63q25 0 94 9v228h130v-521z"/>
<glyph glyph-name="afii10090" horiz-adv-x="822" unicode="ш" d="M749 0h-677v521h131v-406h143v406h130v-406h143v406h130v-521z"/>
<glyph glyph-name="afii10091" horiz-adv-x="843" unicode="щ" d="M819 -128h-123v128h-624v521h131v-406h143v406h130v-406h143v406h130v-406h70v-243z"/>
<glyph glyph-name="afii10092" horiz-adv-x="590" unicode="ъ" d="M361 231h-100v-129h100q32 0 50.5 17.5t18.5 47.5q0 29 -18.5 46.5t-50.5 17.5zM558 167q0 -74 -48 -120.5t-125 -46.5h-251v406h-122v115h253v-188h120q77 0 125 -46t48 -120z"/>
<glyph glyph-name="afii10093" horiz-adv-x="763" unicode="ы" d="M297 231h-98v-129h98q32 0 50.5 17.5t18.5 47.5q0 29 -18.5 46.5t-50.5 17.5zM495 167q0 -74 -48.5 -120.5t-125.5 -46.5h-249v521h131v-188h118q77 0 125.5 -46t48.5 -120zM687 0h-131v521h131v-521z"/>
<glyph glyph-name="afii10094" horiz-adv-x="529" unicode="ь" d="M299 231h-100v-129h100q31 0 49.5 17.5t18.5 47.5q0 29 -18.5 46.5t-49.5 17.5zM496 167q0 -74 -48.5 -120.5t-124.5 -46.5h-251v521h131v-188h120q77 0 125 -46t48 -120z"/>
<glyph glyph-name="afii10095" horiz-adv-x="480" unicode="э" d="M199 527q111 0 172.5 -69t61.5 -194q0 -130 -61 -200t-173 -70q-54 0 -92 16t-79 54l87 86q23 -23 41.5 -32.5t43.5 -9.5q91 0 103 111h-153v89h153q-15 105 -104 105q-42 0 -84 -42l-87 86q41 38 79 54t92 16z"/>
<glyph glyph-name="afii10096" horiz-adv-x="774" unicode="ю" d="M502 410q-45 0 -67 -32q-23 -31 -23 -115q0 -86 22 -119t68 -33q47 0 69 34q22 32 22 117q0 82 -23 117q-22 31 -68 31zM723 262q0 -78 -13.5 -123.5t-45.5 -80.5q-61 -64 -162 -64q-83 0 -139 45q-72 56 -79 172h-81v-211h-131v521h131v-199h81q11 108 78 160 q57 45 140 45q106 0 165 -68q30 -34 43 -79.5t13 -117.5z"/>
<glyph glyph-name="afii10097" horiz-adv-x="535" unicode="я" d="M177 0h-148l105 213q-45 17 -71 55t-26 90q0 71 48.5 117t124.5 46h253v-521h-130v185h-70zM335 288v129h-102q-32 0 -50.5 -17.5t-18.5 -47.5q0 -29 18.5 -46.5t50.5 -17.5h102z"/>
<glyph glyph-name="afii10071" horiz-adv-x="548" unicode="ё" d="M222 606h-111v125h111v-125zM443 606h-111v125h111v-125zM373 309q-3 53 -28.5 81.5t-70.5 28.5t-71 -28.5t-28 -81.5h198zM501 220h-326q6 -116 119 -116q33 0 60 11q24 10 53 38l79 -77q-47 -45 -90 -63q-47 -19 -107 -19q-242 0 -242 268q0 122 61 193.5t166 71.5 q103 0 165 -68t62 -181v-58z"/>
<glyph glyph-name="afii10099" horiz-adv-x="569" unicode="ђ" d="M502 -26q0 -76 -40 -122.5t-132 -46.5h-60v110h36q32 0 48.5 20.5t16.5 47.5v294q0 43 -21.5 67.5t-60.5 24.5t-62.5 -25t-23.5 -67v-277h-131v535h-47v100h47v77h131v-77h228v-100h-228v-103q55 54 128 54q79 0 125 -51.5t46 -138.5v-322z"/>
<glyph glyph-name="afii10100" horiz-adv-x="434" unicode="ѓ" d="M368 774l-114 -170h-87l64 170h137zM421 406h-215v-406h-130v521h345v-115z"/>
<glyph glyph-name="afii10101" horiz-adv-x="480" unicode="є" d="M452 64q-40 -38 -78.5 -54t-92.5 -16q-112 0 -173 70t-61 200q0 124 62 193.5t172 69.5q54 0 92 -16t79 -54l-86 -86q-43 42 -85 42q-90 0 -103 -105h155v-89h-155q12 -111 103 -111q25 0 43.5 9.5t41.5 32.5z"/>
<glyph glyph-name="afii10102" horiz-adv-x="501" unicode="ѕ" d="M465 164q0 -83 -62 -126.5t-159 -43.5q-72 0 -124.5 15t-97.5 60l85 85q49 -49 139 -49q38 0 65 13.5t27 40.5q0 43 -55 48l-82 8q-152 15 -152 146q0 78 58.5 122t142.5 44q134 0 199 -61l-80 -81q-39 35 -121 35q-37 0 -55.5 -14.5t-18.5 -35.5q0 -40 54 -45l82 -8 q76 -7 115.5 -46.5t39.5 -106.5z"/>
<glyph glyph-name="afii10103" horiz-adv-x="275" unicode="і" d="M204 610h-133v106h133v-106zM203 0h-130v521h130v-521z"/>
<glyph glyph-name="afii10104" horiz-adv-x="275" unicode="ї" d="M83 606h-111v125h111v-125zM304 606h-111v125h111v-125zM203 0h-130v521h130v-521z"/>
<glyph glyph-name="afii10105" horiz-adv-x="275" unicode="ј" d="M204 610h-133v106h133v-106zM203 -46q0 -61 -38.5 -105t-113.5 -44h-74v110h50q46 0 46 47v559h130v-567z"/>
<glyph glyph-name="afii10106" horiz-adv-x="824" unicode="љ" d="M117 521h381v-188h121q77 0 125.5 -46t48.5 -120t-48.5 -120.5t-125.5 -46.5h-251v406h-125v-125q0 -159 -41 -220t-126 -61h-62v115h16q21 0 33 4.5t26.5 22t21 59.5t6.5 109v211zM664 167q0 29 -18.5 46.5t-50.5 17.5h-100v-129h100q32 0 50.5 17.5t18.5 47.5z"/>
<glyph glyph-name="afii10107" horiz-adv-x="827" unicode="њ" d="M666 167q0 29 -18.5 46.5t-50.5 17.5h-100v-129h100q32 0 50.5 17.5t18.5 47.5zM795 167q0 -74 -48.5 -120.5t-124.5 -46.5h-252v218h-167v-218h-131v521h131v-188h167v188h131v-188h121q77 0 125 -46t48 -120z"/>
<glyph glyph-name="afii10108" horiz-adv-x="569" unicode="ћ" d="M502 0h-131v267q0 43 -22 67.5t-61 24.5q-40 0 -62.5 -25t-22.5 -67v-267h-131v525h-47v100h47v87h131v-87h228v-100h-228v-103q55 54 127 54q79 0 125.5 -51.5t46.5 -138.5v-286z"/>
<glyph glyph-name="afii10109" horiz-adv-x="533" unicode="ќ" d="M426 774l-114 -170h-87l64 170h137zM204 0h-131v521h131v-247l171 247h152l-184 -243l196 -278h-156l-179 272v-272z"/>
<glyph glyph-name="afii10110" horiz-adv-x="494" unicode="ў" d="M490 521l-223 -605q-21 -56 -56.5 -81.5t-94.5 -25.5h-51v117h30q29 0 42 9.5t23 37.5l22 64l-178 484h137l108 -322l104 322h137zM411 722q-2 -75 -48.5 -109t-113.5 -34t-113 34t-49 109h98q4 -62 64 -62t64 62h98z"/>
<glyph glyph-name="afii10193" horiz-adv-x="573" unicode="џ" d="M501 0h-154v-128h-123v128h-152v521h131v-406h167v406h131v-521z"/>
<glyph glyph-name="afii10050" horiz-adv-x="561" unicode="Ґ" d="M534 588h-309v-588h-139v712h314v158h134v-282z"/>
<glyph glyph-name="afii10098" horiz-adv-x="434" unicode="ґ" d="M421 406h-215v-406h-130v521h222v128h123v-243z"/>
<glyph glyph-name="endash" d="M493 225h-443v121h443v-121z" unicode="–"/>
<glyph glyph-name="emdash" horiz-adv-x="1027" unicode="—" d="M968 226h-909v125h909v-125z"/>
<glyph glyph-name="quoteleft" horiz-adv-x="273" unicode="‘" d="M204 589h-136v123l136 105v-228z"/>
<glyph glyph-name="quotesinglbase" horiz-adv-x="271" unicode="‚" d="M204 0l-136 -104v228h136v-124z"/>
<glyph glyph-name="quotedblleft" horiz-adv-x="482" unicode="“" d="M203 589h-135v123l135 105v-228zM414 589h-136v123l136 105v-228z"/>
<glyph glyph-name="quotedblright" horiz-adv-x="482" unicode="”" d="M203 588l-135 -103v227h135v-124zM414 588l-136 -103v227h136v-124z"/>
<glyph glyph-name="dagger" horiz-adv-x="579" unicode="†" d="M522 410h-168v-410h-130v410h-167v117h167v185h130v-185h168v-117z"/>
<glyph glyph-name="daggerdbl" horiz-adv-x="579" unicode="‡" d="M522 -6h-168v-185h-130v185h-167v117h167v299h-167v117h167v185h130v-185h168v-117h-168v-299h168v-117z"/>
<glyph glyph-name="ellipsis" horiz-adv-x="846" unicode="…" d="M778 0h-141v141h141v-141zM493 0h-141v141h141v-141zM210 0h-142v141h142v-141z"/>
<glyph glyph-name="perthousand" horiz-adv-x="1211" unicode="‰" d="M248 486v91q0 57 -51 57t-51 -57v-91q0 -57 51 -57t51 57zM702 135v91q0 57 -51 57t-51 -57v-91q0 -57 51 -57t51 57zM1064 134v92q0 57 -51 57t-51 -57v-91q0 -57 51 -57t51 56zM644 712l-337 -712h-102l337 712h102zM342 482q0 -65 -41.5 -101t-103.5 -36t-103.5 36 t-41.5 101v99q0 65 41.5 101t103.5 36t103.5 -36t41.5 -101v-99zM796 131q0 -65 -41.5 -101t-103.5 -36t-103.5 36t-41.5 101v99q0 65 41.5 101t103.5 36t103.5 -36t41.5 -101v-99zM1158 131q0 -65 -41.5 -101t-103.5 -36t-103.5 36t-41.5 101v99q0 65 41.5 101t103.5 36 t103.5 -36t41.5 -101v-99z"/>
<glyph glyph-name="guilsinglleft" horiz-adv-x="350" unicode="‹" d="M283 27l-249 248l249 248v-155l-94 -93l94 -93v-155z"/>
<glyph glyph-name="guilsinglright" horiz-adv-x="350" unicode="›" d="M316 275l-249 -248v155l95 93l-95 93v155z"/>
<glyph glyph-name="fraction" horiz-adv-x="208" unicode="⁄" d="M323 712l-337 -712h-101l337 712h101z"/>
<glyph glyph-name="Euro" horiz-adv-x="684" unicode="€" d="M632 219q-18 -109 -88.5 -167t-172.5 -58q-114 0 -192 78q-57 57 -67 165h-73v83h69v75h-69v83h73q10 105 67 162q78 78 192 78q103 0 173 -58t88 -167h-141q-25 101 -120 101q-54 0 -88 -37q-24 -27 -29 -79h148v-83h-154v-75h154v-83h-149q5 -54 30 -82q34 -37 88 -37 q96 0 121 101h140z"/>
<glyph glyph-name="trademark" horiz-adv-x="924" unicode="™" d="M360 627h-110v-342h-95v342h-110v85h315v-85zM860 285h-95v252l-80 -157h-84l-80 157v-252h-95v427h95l122 -228l122 228h95v-427z"/>
<glyph glyph-name="arrowleft" horiz-adv-x="1027" unicode="←" d="M436 -100l-386 385l386 385h164l-327 -324h704v-123h-704l327 -323h-164z"/>
<glyph glyph-name="arrowup" horiz-adv-x="1027" unicode="↑" d="M899 200l-324 327v-705h-122v705l-324 -327v164l385 385l385 -385v-164z"/>
<glyph glyph-name="arrowright" horiz-adv-x="1027" unicode="→" d="M429 -100l327 324h-705v122h705l-327 324h164l385 -385l-385 -385h-164z"/>
<glyph glyph-name="arrowdown" horiz-adv-x="1027" unicode="↓" d="M898 208l-385 -386l-385 386v164l324 -327v704h123v-704l323 327v-164z"/>
<glyph glyph-name="partialdiff" horiz-adv-x="555" unicode="∂" d="M352 254q0 91 -27 120q-22 22 -56 22t-56 -22q-27 -29 -27 -120q0 -92 27 -121q22 -22 56 -22t56 22q27 29 27 121zM482 254q0 -72 -12.5 -117.5t-44.5 -80.5q-58 -62 -156 -62q-97 0 -155 62q-33 35 -45.5 80.5t-12.5 117.5q0 73 12.5 118.5t45.5 80.5q56 60 150 60 q55 0 87 -29v27q0 35 -25 66t-79 31q-61 0 -102 -40l-81 82q39 38 83 53t106 15q111 0 170 -65t59 -172v-227z"/>
<glyph glyph-name="product" horiz-adv-x="685" unicode="∏" d="M602 -191h-139v828h-241v-828h-139v951h519v-951z"/>
<glyph glyph-name="summation" horiz-adv-x="552" unicode="∑" d="M515 -191h-475v110l189 376l-186 355v110h468v-124h-306l141 -279v-129l-146 -295h315v-124z"/>
<glyph glyph-name="minus" d="M493 225h-443v121h443v-121z" unicode="−"/>
<glyph glyph-name="radical" horiz-adv-x="596" unicode="√" d="M566 588h-92l-194 -588h-105l-172 521h141l84 -273l143 464h195v-124z"/>
<glyph glyph-name="infinity" horiz-adv-x="851" unicode="∞" d="M670 281q0 30 -19 47.5t-46 17.5q-24 0 -43.5 -15.5t-47.5 -49.5q19 -23 30 -34t27.5 -21t33.5 -10q27 0 46 17.5t19 47.5zM337 281q-19 23 -30 34.5t-28 21.5t-34 10q-27 0 -45.5 -18t-18.5 -48t18.5 -47.5t45.5 -17.5q17 0 34 10t28.5 21.5t29.5 33.5zM796 284 q0 -82 -50 -135t-140 -53q-98 0 -181 94q-83 -94 -180 -94q-90 0 -140 53t-50 135t50 136t140 54q96 0 180 -95q84 95 181 95q90 0 140 -54t50 -136z"/>
<glyph glyph-name="logicaland" horiz-adv-x="285" unicode="∧" d="M217 212h-149v148h149v-148z"/>
<glyph glyph-name="approxequal" horiz-adv-x="606" unicode="≈" d="M569 167q-48 -48 -83.5 -67t-80.5 -19q-55 0 -117 33q-48 25 -81 25q-44 0 -87 -43l-83 82q47 47 84 66.5t82 19.5q54 0 116 -33q46 -24 82 -24q44 0 86 42zM569 393q-47 -47 -83.5 -66.5t-81.5 -19.5q-55 0 -117 33q-46 24 -82 24q-44 0 -86 -42l-82 82q48 48 83.5 67 t80.5 19q55 0 117 -33q48 -25 81 -25q44 0 87 43z"/>
<glyph glyph-name="notequal" horiz-adv-x="602" unicode="≠" d="M552 116h-320l-103 -129l-79 62l55 67h-55v122h149l78 95h-227v122h320l103 129l79 -62l-55 -67h55v-122h-148l-78 -95h226v-122z"/>
<glyph glyph-name="lessequal" d="M475 -42l-406 187v137l406 -187v-137zM475 175l-406 187v114l406 186v-137l-241 -106l241 -107v-137z" unicode="≤"/>
<glyph glyph-name="greaterequal" d="M475 145l-406 -187v137l406 187v-137zM475 362l-406 -187v137l241 107l-241 106v137l406 -186v-114z" unicode="≥"/>
<glyph glyph-name="dotmath" horiz-adv-x="285" unicode="⋅" d="M217 212h-149v148h149v-148z"/>
<glyph glyph-name="lozenge" horiz-adv-x="636" unicode="◊" d="M435 341l-117 164l-117 -164l117 -165zM581 341l-263 -367l-263 367l263 366z"/>
</font>
</defs>
</svg>
